<svg class="icon" viewBox="0 0 1319 1024" xmlns="http://www.w3.org/2000/svg" width="257.617" height="200"><path d="m1245.645 582.188-574.8-456.59c-5.91-5.91-13.298-7.387-17.731-7.387s-11.821 1.477-17.732 7.388l-2.955 2.955L76.837 580.71 0 492.052 554.113 39.896C580.71 14.776 616.173 0 653.114 0s72.404 13.299 97.524 39.896l568.889 450.678-73.882 91.614z" fill="#fff"/><path d="M663.457 175.838S181.75 549.68 181.75 573.322V979.67c0 23.642 19.21 42.851 42.851 42.851h325.08V693.01h218.69V1024h325.079c23.642 0 42.851-19.21 42.851-42.851v-406.35c1.478-25.12-472.843-398.96-472.843-398.96z" fill="#fff"/></svg>