<svg width="60" height="60" viewBox="0 0 60 60" fill="none" xmlns="http://www.w3.org/2000/svg"><g clip-path="url(#clip0_139_11847)"><circle cx="30" cy="30" r="30" fill="#00A0DF"/><path fill-rule="evenodd" clip-rule="evenodd" d="M20 24.367v1.106a10.105 10.105 0 1 0 20.21 0v-.961c-9.814-2.977-17.172-1.213-20.21-.145zm0-1.907c3.322-1.127 10.558-2.726 20.21.213v-.568L32.5 20.5H29l-9 1.605v.355z" fill="#fff"/><mask id="a" fill="#fff"><path fill-rule="evenodd" clip-rule="evenodd" d="M20 13.36v9.348s9.298-4.527 20.213.162v-8.701S32.128 8.509 20 13.36zm9.702 3.204h-2.425c-.243 0-.405-.162-.405-.404 0-.243.162-.405.405-.405h2.425V13.33c0-.243.162-.404.404-.404.243 0 .405.161.405.404v2.425h2.425c.243 0 .404.162.404.405 0 .242-.161.404-.404.404h-2.425v2.425c0 .243-.162.405-.405.405-.242 0-.404-.162-.404-.404v-2.426z"/></mask><path fill-rule="evenodd" clip-rule="evenodd" d="M20 13.36v9.348s9.298-4.527 20.213.162v-8.701S32.128 8.509 20 13.36zm9.702 3.204h-2.425c-.243 0-.405-.162-.405-.404 0-.243.162-.405.405-.405h2.425V13.33c0-.243.162-.404.404-.404.243 0 .405.161.405.404v2.425h2.425c.243 0 .404.162.404.405 0 .242-.161.404-.404.404h-2.425v2.425c0 .243-.162.405-.405.405-.242 0-.404-.162-.404-.404v-2.426z" fill="#F4FFFC"/><path d="M20 22.708h-.195v.313l.28-.137-.085-.176zm0-9.348l-.073-.181-.122.049v.132H20zm20.213 9.51l-.077.18.272.116v-.296h-.195zm0-8.701h.195v-.102l-.083-.058-.112.16zm-10.51 2.395h.194v-.195h-.195v.195zm0-.809v.196h.194v-.196h-.195zm.808 0h-.196v.196h.196v-.196zm2.83.405h.195-.196zm-2.83.404v-.195h-.196v.195h.196zm-10.316 6.144V13.36h-.39v9.348h.39zm20.095-.017c-5.498-2.363-10.59-2.403-14.305-1.854a25.773 25.773 0 0 0-4.424 1.052c-.526.177-.936.337-1.215.454a11.364 11.364 0 0 0-.402.176l-.021.01-.006.003h-.002l.085.176.085.176h.002l.004-.003.02-.009.077-.035c.069-.032.172-.077.308-.134.272-.113.673-.27 1.19-.444a25.375 25.375 0 0 1 4.356-1.035c3.662-.542 8.677-.502 14.094 1.825l.154-.358zm-.273-8.522v8.701h.391v-8.701h-.39zm-19.945-.628c6.023-2.409 11.036-2.206 14.539-1.405 1.752.4 3.128.95 4.065 1.4.468.225.826.424 1.066.567a8.08 8.08 0 0 1 .354.223l.004.002.113-.16.111-.16h-.001l-.005-.004-.02-.013a8.64 8.64 0 0 0-.357-.224 14.25 14.25 0 0 0-1.097-.583 19.848 19.848 0 0 0-4.146-1.43c-3.572-.815-8.666-1.017-14.77 1.425l.145.362zm7.205 3.218h2.425v-.39h-2.425v.39zm-.6-.6a.6.6 0 0 0 .168.432.6.6 0 0 0 .432.168v-.39c-.077 0-.126-.025-.155-.054-.03-.03-.054-.078-.054-.155h-.391zm.6-.599a.6.6 0 0 0-.432.169.599.599 0 0 0-.168.43h.39c0-.076.025-.125.055-.154.029-.03.078-.054.155-.054v-.39zm2.425 0h-2.425v.39h2.425v-.39zm.195.195V13.33h-.39v2.425h.39zm0-2.425c0-.077.025-.126.054-.155.03-.03.078-.054.155-.054v-.39a.599.599 0 0 0-.43.168.599.599 0 0 0-.17.43h.391zm.21-.209c.076 0 .125.025.154.054.03.03.054.078.054.155h.39a.6.6 0 0 0-.167-.431.6.6 0 0 0-.432-.169v.391zm.208.209v2.425h.39V13.33h-.39zm2.621 2.23h-2.425v.39h2.425v-.39zm.6.6a.599.599 0 0 0-.169-.431.6.6 0 0 0-.43-.169v.39c.076 0 .125.026.154.055.03.029.054.078.054.155h.39zm-.6.6a.6.6 0 0 0 .431-.17.6.6 0 0 0 .169-.43h-.39c0 .077-.026.125-.055.155-.03.029-.078.054-.155.054v.39zm-2.425 0h2.425v-.391h-2.425v.39zm-.196-.196v2.425h.39v-2.425h-.39zm0 2.425c0 .077-.024.126-.054.155-.029.03-.078.054-.155.054v.391a.6.6 0 0 0 .431-.168.6.6 0 0 0 .169-.431h-.39zm-.209.21c-.077 0-.125-.025-.155-.055-.029-.029-.054-.078-.054-.154h-.39c0 .165.056.318.168.43a.599.599 0 0 0 .431.17v-.392zm-.209-.21v-2.425h-.39v2.425h.39z" fill="#fff" mask="url(#a)"/><path d="M19.6 36a7.6 7.6 0 0 0-7.6 7.6v2.533a2.533 2.533 0 0 0 2.533 2.534h30.4a2.533 2.533 0 0 0 2.534-2.534V43.6a7.6 7.6 0 0 0-7.6-7.6h-.646a1.266 1.266 0 0 0-1.001.489l-6.487 8.34a2.533 2.533 0 0 1-4 0l-6.485-8.34A1.267 1.267 0 0 0 20.246 36H19.6z" fill="#fff"/></g><defs><clipPath id="clip0_139_11847"><path fill="#fff" d="M0 0h60v60H0z"/></clipPath></defs></svg>