<svg width="60" height="60" viewBox="0 0 60 60" fill="none" xmlns="http://www.w3.org/2000/svg"><g clip-path="url(#clip0_139_11890)"><circle cx="30" cy="30" r="30" fill="#244881"/><g fill="#fff" clip-path="url(#clip1_139_11890)"><path d="M26.123 30.002a3.926 3.926 0 1 0 7.852-.003 3.926 3.926 0 0 0-7.852.003z"/><path d="M48.344 26.317l-4.648-.645a14.215 14.215 0 0 0-.958-2.284l2.839-3.754a.761.761 0 0 0-.07-.997l-4.144-4.144a.762.762 0 0 0-.996-.07l-3.775 2.855a14.109 14.109 0 0 0-2.26-.941l-.65-4.68A.76.76 0 0 0 32.93 11h-5.86a.76.76 0 0 0-.751.657l-.657 4.717c-.77.249-1.509.564-2.216.932l-3.813-2.883a.763.763 0 0 0-.996.072l-4.144 4.142a.764.764 0 0 0-.07.997l2.899 3.832c-.361.7-.673 1.43-.916 2.191l-4.75.66a.76.76 0 0 0-.656.753v5.86c0 .379.28.7.655.753l4.75.66c.243.761.555 1.491.917 2.192l-2.899 3.831a.765.765 0 0 0 .07.997l4.144 4.144a.76.76 0 0 0 .995.07l3.813-2.883c.708.37 1.447.684 2.217.932l.656 4.718a.758.758 0 0 0 .752.656h5.86c.379 0 .7-.28.751-.656l.652-4.68a14.197 14.197 0 0 0 2.26-.942l3.773 2.855a.762.762 0 0 0 .997-.07l4.144-4.144a.762.762 0 0 0 .07-.995l-2.84-3.754c.382-.73.707-1.49.96-2.286l4.647-.645A.761.761 0 0 0 49 32.93v-5.86a.76.76 0 0 0-.656-.753zM38.29 30.001c0 4.542-3.695 8.239-8.241 8.239-4.543 0-8.24-3.697-8.24-8.239 0-4.542 3.697-8.24 8.24-8.24 4.546 0 8.241 3.698 8.241 8.24z"/></g></g><defs><clipPath id="clip0_139_11890"><path fill="#fff" d="M0 0h60v60H0z"/></clipPath><clipPath id="clip1_139_11890"><path fill="#fff" transform="translate(11 11)" d="M0 0h38v38H0z"/></clipPath></defs></svg>