<svg class="icon" viewBox="0 0 1024 1024" xmlns="http://www.w3.org/2000/svg" width="48" height="48"><defs><style/></defs><path d="M565.333 412.373h-448a32 32 0 010-64h448a32 32 0 010 64zm0 263.254h-448a32 32 0 010-64h448a32 32 0 010 64zm341.334-526.294H117.333a32 32 0 010-64h789.334a32 32 0 010 64zm0 789.334H117.333a32 32 0 010-64h789.334a32 32 0 010 64zm-4.48-250.027L740.693 527.147a21.333 21.333 0 010-30.294L902.187 335.36a21.333 21.333 0 0136.48 15.147v322.986a21.333 21.333 0 01-36.48 15.147z"/></svg>