<?xml version="1.0" standalone="no"?>
<!DOCTYPE svg PUBLIC "-//W3C//DTD SVG 1.1//EN" "http://www.w3.org/Graphics/SVG/1.1/DTD/svg11.dtd" >
<!--
2013-9-30: Created.
-->
<svg>
<metadata>
Created by iconfont
</metadata>
<defs>

<font id="iconfont" horiz-adv-x="1024" >
  <font-face
    font-family="iconfont"
    font-weight="500"
    font-stretch="normal"
    units-per-em="1024"
    ascent="896"
    descent="-128"
  />
    <missing-glyph />
    
    <glyph glyph-name="doctor-schedule" unicode="&#58910;" d="M990.72 156.15999999999997c-46.592 39.424-107.52 70.144-162.304 95.744-39.424 18.432-89.6 50.176-134.656 50.176L512 114.17600000000004 330.752 302.08000000000004c-45.056 0-95.232-31.744-134.656-50.176-54.784-25.6-115.712-56.32-162.304-95.744-42.496-35.84-32.256-101.888-32.256-152.064V-128h1021.952v132.096c-0.512 50.176 9.728 116.224-32.768 152.064z m-132.096-124.416h-72.192v-72.192h-48.128v72.192h-72.192v48.128h72.192v72.192h48.128v-72.192h72.192v-48.128zM608.256 896H415.744c-76.288 0-138.24-61.952-138.24-138.24v-169.984c0-4.608 3.584-8.192 8.192-8.192s8.192 3.584 8.192 8.192V593.9200000000001c0 67.584 54.784 122.368 122.368 122.368H609.28c67.584 0 122.368-54.784 122.368-122.368 0-4.608 3.584-8.192 8.192-8.192s8.192 3.584 8.192 8.192V757.76c-1.536 76.288-63.488 138.24-139.776 138.24z"  horiz-adv-x="1024" />

    
    <glyph glyph-name="class-management" unicode="&#58911;" d="M469.504 134.144l-154.112 165.376 94.72 87.04L469.504 322.55999999999995l144.384 156.16 94.72-87.04zM860.16-128H163.84c-90.112 0-163.84 73.216-163.84 162.816v593.92c0 90.112 73.728 162.816 163.84 162.816h696.32c90.112 0 163.84-73.216 163.84-162.816v-593.408c0-90.112-73.216-163.328-163.84-163.328zM163.84 663.552c-19.456 0-35.328-15.872-35.328-34.816v-593.408c0-19.456 15.872-34.816 35.328-34.816h696.32c19.456 0 35.328 15.872 35.328 34.816V628.736c0 19.456-15.872 34.816-35.328 34.816H163.84zM376.32 540.672c-35.328 0-64.512 28.672-64.512 64V832C311.808 867.328 340.992 896 376.32 896s64.512-28.672 64.512-64v-227.328c0-35.328-29.184-64-64.512-64zM647.68 540.672c-35.328 0-64.512 28.672-64.512 64V832C583.68 867.328 612.352 896 647.68 896s64.512-28.672 64.512-64v-227.328c0-35.328-28.672-64-64.512-64z"  horiz-adv-x="1024" />

    
    <glyph glyph-name="notice" unicode="&#58965;" d="M771.584 805.888c-28.672 0-55.808-7.168-80.896-19.968L89.6 577.024v-1.024C38.912 563.2 0 482.816 0 384s38.912-179.2 89.6-192v-1.024l600.064-208.384c25.6-13.312 52.736-20.48 81.92-20.48 145.92 0 252.416 177.152 252.416 421.888s-105.984 421.888-252.416 421.888z m0-720.384c-61.44 0-130.048 122.368-130.048 298.496s68.608 298.496 130.048 298.496c61.44 0 130.048-122.368 130.048-298.496s-68.608-298.496-130.048-298.496zM192 5.631999999999948l101.376-35.328 25.088-7.68v98.304l-126.464 44.032z"  horiz-adv-x="1024" />

    
    <glyph glyph-name="system-management" unicode="&#58966;" d="M807.788106 896H344.147926C241.7991 896 158.896552 813.097451 158.896552 711.26037c0-35.310345 28.657671-63.968016 63.968016-63.968016S287.344328 675.950025 287.344328 711.26037c0 31.216392 25.075462 56.291854 56.291854 56.291854h464.151924c31.216392 0 56.291854-25.075462 56.291854-56.291854v-654.008996c0-31.216392-25.075462-56.291854-56.291854-56.291854h-30.704648c-31.216392 0-56.291854 25.075462-56.291854 56.291854V624.775612H31.472264v-569.571214c0-100.813593 81.87906-183.204398 183.204398-183.204398h593.623188c101.837081 0 184.73963 82.902549 184.73963 184.73963V711.26037C992.527736 813.097451 909.625187 896 807.788106 896z"  horiz-adv-x="1024" />

    
    <glyph glyph-name="nurse-roster" unicode="&#58967;" d="M827.850107 86.51403500000004c-39.421434 18.4308-89.594167 50.172734-134.647235 50.172734L511.966671-51.20499900000004l-181.236202 187.891768c-45.053067 0-95.225801-31.741934-134.647234-50.172734-54.780434-25.598334-115.704468-56.316334-162.293435-95.737767C0-37.893866-1.023933-84.99480000000005 0.511967-128H1023.933342c1.023933 43.0052 0.511967 90.106134-33.277834 118.776268-47.100934 38.909467-108.024968 69.627467-162.805401 95.737767zM511.966671 171.50050299999998h-3.583767c-58.3642 1.023933-113.144634 26.622267-154.613934 72.1873-45.565034 50.172734-71.163367 118.264301-71.163368 186.867835 0 44.029134 18.942767 87.034334 53.244534 120.824134 45.053067 44.5411 112.120701 69.115501 182.772102 68.091568 116.728401-2.047867 211.954202-74.235167 222.193535-168.437035 8.703433-81.402701-16.8949-152.566068-75.259101-212.978135-42.493234-43.0052-96.761701-66.555667-153.590001-66.555667z m1.5359 432.09987c-65.019767 0-125.431834-23.0385-166.901135-63.483867-31.741934-31.229967-48.124867-68.603534-48.124867-109.048901 0-63.995834 25.086367-130.039534 67.067634-176.116535 38.3975-41.981267 89.082201-66.043701 143.350668-66.555667h3.0718c52.732567 0 102.393334 21.5026 141.302801 61.436 55.2924 56.316334 78.842867 123.383968 70.651401 199.667002-9.2154 86.010401-97.785634 152.566068-206.322569 154.101968h-4.095733zM847.816807 301.02806999999996c-4.6077 36.349634-41.981267 53.7565-58.876167 83.450568-22.014567 38.3975-18.942767 86.010401-24.5744 128.503634-2.559833 18.4308-6.655567 36.349634-11.775234 54.268467-17.406867 83.962534-73.723201 150.518201-146.422468 181.748168v-24.5744h-72.1873v-72.1873h-48.124867V724.424507h-71.675334v22.014567C339.94587 712.649274 285.165436 643.021806 269.294469 558.035339c-4.095733-14.847033-7.167533-29.694067-9.2154-45.053067-5.631633-42.493234-2.559833-90.618101-24.5744-128.503634-16.8949-29.1821-54.268467-47.100934-58.876168-83.450568-7.6795-59.388134 51.708634-102.393334 104.953168-110.584801 43.517167-6.655567 87.546301 1.023933 131.063468 6.1436 6.1436 0.511967 11.775233 0.511967 17.918833 1.023934-25.598334 11.775233-49.660767 28.670134-70.139434 51.708634-44.029134 48.124867-69.115501 115.192501-69.1155 181.748168 0 101.369401 102.393334 182.772102 227.313202 180.724235 110.072834-1.5359 204.274702-69.627467 214.002068-161.269502 7.6795-74.235167-13.8231-145.398535-73.211234-206.322568-19.9667-20.478667-42.493234-35.3257-66.0437-46.077001 6.1436-0.511967 12.799167-0.511967 18.942766-1.023933 43.517167-5.119667 87.546301-12.799167 131.063468-6.1436 52.732567 7.167533 112.120701 50.172734 104.441201 110.072834zM804.811607 809.410975C631.254905 925.627409 388.070737 924.603476 215.026002 807.875075c-15.359-10.239333-19.9667-28.670134-11.263267-43.517167l81.402701-144.374602c6.655567-12.2872 20.990634-19.454733 35.837667-19.454733 3.0718 0 6.1436 0.511967 9.2154 1.023933 55.2924 11.775233 112.120701 18.4308 168.949001 19.454734 65.531734 1.023933 129.527568-4.095733 191.987502-15.870967 17.918833-3.583767 36.349634 4.095733 44.5411 18.4308l80.378768 141.814768c8.703433 15.359 3.583767 33.7898-11.263267 44.029134z m-198.643069-84.986468h-72.1873v-72.1873h-48.124867V724.424507h-71.675334v48.124867H486.368337v71.675334h48.124867v-72.1873h72.187301v-47.612901z"  horiz-adv-x="1024" />

    
    <glyph glyph-name="winrefresh" unicode="&#58960;" d="M508.928-0.512c-24.576 0-49.152 2.56-74.24 7.168-100.864 19.968-187.904 77.824-244.736 163.328C133.12 254.976 112.64 357.888 132.096 458.24l111.616-22.016c-13.824-71.168 0.512-143.36 40.96-203.264s101.376-100.864 172.544-114.688c94.208-18.944 192.512 14.848 256.512 87.552l85.504-74.752c-73.728-84.48-180.224-131.584-290.304-131.584zM886.784 309.76l-111.616 22.016c28.672 146.432-66.56 289.28-213.504 317.952-88.576 17.408-179.712-10.24-244.224-74.24L237.568 655.872c91.136 90.624 220.16 130.048 346.112 105.472 208.384-40.96 344.064-243.712 303.104-451.584zM0 426.496l181.76 199.168L363.52 426.496zM660.48 376.32l181.76-199.68 181.76 199.68z"  horiz-adv-x="1024" />

    
    <glyph glyph-name="winminimize" unicode="&#58961;" d="M73.216 446.464h877.568v-125.44H73.216z"  horiz-adv-x="1024" />

    
    <glyph glyph-name="winmaximize" unicode="&#58962;" d="M825.344 634.88v-501.76H198.656V634.88h626.688m125.44 125.44H73.216v-752.128h877.568V760.3199999999999z"  horiz-adv-x="1024" />

    
    <glyph glyph-name="winclose" unicode="&#58963;" d="M91.66848 52.014080000000035L843.9808 804.32128l88.69888-88.69888L180.36736-36.684799999999996zM91.66848 715.98592l88.69888 88.69888L932.67968 52.37760000000003l-88.69888-88.69888z"  horiz-adv-x="1024" />

    
    <glyph glyph-name="winreduction" unicode="&#58964;" d="M557.056 404.992v-334.336H125.44V404.992h431.616m125.44 125.44H0v-585.216h682.496V530.432zM898.56 697.344v-334.336h-216.064V530.432H466.944V697.344h431.616M1024 822.784H341.504v-417.792h216.064v-167.424H1024V822.784z"  horiz-adv-x="1024" />

    
    <glyph glyph-name="dressing-change" unicode="&#58903;" d="M743.936-128H280.064c-81.92 0-147.968 66.56-147.968 147.968V416.256c0 81.92 66.56 147.968 147.968 147.968h464.384c81.92 0 147.968-66.56 147.968-147.968v-396.288c0-81.408-66.56-147.968-148.48-147.968zM280.064 418.304l-2.048-398.336 466.432-2.048 2.048 398.336-60.416 2.048H280.064zM310.272 896h421.376v-250.368H310.272zM373.76 274.94399999999996h274.944v-146.432H373.76z"  horiz-adv-x="1024" />

    
    <glyph glyph-name="pluck" unicode="&#58904;" d="M439.977618 147.00392c-47.100232 0-93.688505 17.918567-129.525638 53.24374l-194.544436 194.544437C44.745237 465.954404 44.745237 582.169106 116.419503 653.843373l126.453884 126.453883C314.035694 851.459563 430.250396 851.459563 501.412703 779.785297l194.544437-194.544436c34.301256-34.301256 53.243741-80.37757 53.24374-129.525638s-18.942485-94.712423-53.24374-129.525638L569.503256 199.73570099999995c-35.837133-35.325174-82.425406-52.731781-129.525638-52.731781zM371.887065 760.330854c-28.157747 0-56.315495-10.75114-77.817774-32.25342L168.127366 601.62355c-43.00456-43.00456-43.00456-112.63099 0-155.12359l194.544437-194.544436c43.00456-43.00456 112.63099-43.00456 155.12359 0l126.453883 126.453883c20.478362 20.478362 32.25342 48.12415 32.25342 77.817775 0 29.181665-11.263099 56.827454-32.25342 77.817774l-194.544436 194.544437c-21.50228 20.990321-49.660027 31.741461-77.817775 31.741461zM581.227118 263.392689l51.779538 51.759059 391.269818-391.387569-51.774418-51.759059zM0.000016 724.7497L171.219599 895.979522l51.769298-51.769299L51.759076 672.980402zM74.83307 769.587073l51.764179 51.764179 104.61883-104.618831-51.764179-51.764178zM692.373427 374.825694c47.100232-47.100232 47.100232-123.894088 0-171.50628s-123.894088-47.100232-171.50628 0"  horiz-adv-x="1024" />

    
    <glyph glyph-name="puncture" unicode="&#58905;" d="M659.510166-72.523459c-49.135048 0-95.199156 18.937467-129.491325 53.229635L116.465517 394.771324C82.173347 429.063493 63.235881 475.127601 63.235881 524.262649S82.173347 618.949982 116.465517 653.753975l126.420385 126.420385C314.029357 851.317815 430.213274 851.317815 501.356729 779.662536l414.065148-414.065147c71.143456-71.143456 71.143456-187.327372 0-258.982651l-126.420385-126.420385c-34.292169-33.780346-80.356277-52.717812-129.491326-52.717812zM371.865404 760.213246c-28.150288 0-56.300576-10.748292-77.79716-32.244875L168.159682 601.547986c-42.993167-42.993167-42.993167-112.601153 0-155.082497l414.065148-414.065147c41.457697-41.457697 114.136623-41.457697 155.082496 0l126.420385 126.420385c42.993167 42.993167 42.993167 112.601153 0 155.082496L449.662564 727.9683709999999c-21.496584 21.496584-49.646872 32.244876-77.79716 32.244875zM152.549068 438.506635l133.550085 133.544967 51.750466-51.755584-133.544967-133.544967zM245.107215 346.588267l133.544967 133.544967 51.755584-51.750466-133.544967-133.544967zM337.163776 253.74349800000005L470.698506 387.288465l51.755584-51.750466-133.544966-133.544967zM429.947125 161.098341l133.544967 133.544967 51.755585-51.750466-133.544967-133.544967zM522.520628 69.16973599999994l133.544967 133.544967 51.755584-51.755584-133.544967-133.544967zM800.54311 43.50179200000002l51.745348 51.765821 171.59392-171.522265-51.745348-51.765821zM-0.005021 724.820657L171.17944 896 222.935025 844.254652 51.750563 673.065073zM74.869627 769.497723l51.755584 51.750466L231.216328 716.657073 179.460743 664.901489zM911.839113 155.23796300000004c47.087755-47.087755 47.087755-123.861268 0-171.460846s-123.861268-47.087755-171.460846 0"  horiz-adv-x="1024" />

    
    <glyph glyph-name="dispensing" unicode="&#58889;" d="M743.6288 352.2048c-117.1456-17.7664-207.2064-117.9648-207.2064-240.0768s90.0608-222.3104 207.2064-240.0768v480.1536zM816.7936 352.2048V-128c117.1456 17.7664 207.2064 117.9648 207.2064 240.0768s-90.0608 222.3616-207.2064 240.128zM591.104 356.65920000000006l192.3072 192.3072c79.104 79.104 79.104 208.5888 0 287.6928s-208.5888 79.104-287.6928 0L303.4112 644.352l287.6928-287.6928zM251.648 592.5888L59.3408 400.2816c-79.104-79.104-79.104-208.5888 0-287.6928s208.5888-79.104 287.6928 0l192.3072 192.3072-287.6928 287.6928z"  horiz-adv-x="1024" />

    
    <glyph glyph-name="stop" unicode="&#58890;" d="M512 384m-512 0a512 512 0 1 1 1024 0 512 512 0 1 1-1024 0ZM757.76 128H266.24c-5.632 0-10.24 4.608-10.24 10.24V629.76c0 5.632 4.608 10.24 10.24 10.24h491.52c5.632 0 10.24-4.608 10.24-10.24v-491.52c0-5.632-4.608-10.24-10.24-10.24z"  horiz-adv-x="1024" />

    
    <glyph glyph-name="end" unicode="&#58891;" d="M512 749.7216c97.6896 0 189.4912-38.0416 258.56-107.1616 22.784-22.784 42.3936-48.2816 58.3168-75.776 68.0448-117.6576 65.3824-262.1952-6.9632-377.1904a369.35168 369.35168 0 0 0-51.3536-64.256c-69.0688-69.0688-160.8704-107.1104-258.56-107.1104S322.5088 56.32000000000005 253.44 125.38879999999995C184.32 194.50879999999995 146.2784 286.31039999999996 146.2784 384S184.32 573.4911999999999 253.44 642.6112C322.5088 711.6800000000001 414.3616 749.7216 512 749.7216M512 896C380.9792 896 249.9584 846.0288 150.016 746.0352c-199.9872-199.9872-199.9872-524.0832 0-724.0704C249.9584-78.02880000000005 380.9792-128 512-128c131.0208 0 262.0416 49.9712 361.984 149.9648 27.7504 27.7504 51.6608 57.9072 71.7312 89.7536 101.0176 160.5632 104.2944 364.9536 9.7792 528.3328a511.4112 511.4112 0 0 1-81.5104 105.984C774.0416 846.0288 643.0208 896 512 896zM457.6768 176.5376c-15.0016 0-30.0544 4.6592-43.008 13.9776l-163.0208 118.5792c-32.6656 23.808-39.8848 69.4784-16.128 102.1952 23.7568 32.6144 69.4784 39.936 102.1952 16.128l112.6912-82.0224 227.328 224.9216c28.6208 28.416 75.0592 28.1088 103.424-0.5632 28.416-28.7232 28.16-75.008-0.5632-103.424l-271.5136-268.6464c-14.0288-14.0288-32.6144-21.1456-51.4048-21.1456z"  horiz-adv-x="1024" />

    
    <glyph glyph-name="start" unicode="&#58892;" d="M289.1776-128H234.2912c-70.5536 0-128 57.4464-128 128V768c0 70.5536 57.4464 128 128 128h54.8352c28.0576 0 55.7056-9.3696 77.9264-26.4704l500.48-384c31.4368-24.064 50.1248-62.0544 50.1248-101.5808 0-39.4752-18.7392-77.4656-50.0736-101.5296l-500.5824-384a128.55296 128.55296 0 0 0-77.824-26.4192z m-36.608 146.2784h30.4128l476.672 365.6704-476.672 365.7216h-30.3616v-731.392z m525.9264 351.232c0.0512 0 0.0512-0.0512 0.0512-0.0512v0.0512h-0.0512z"  horiz-adv-x="1024" />

    
    <glyph glyph-name="Infusion-bottle" unicode="&#58888;" d="M549.2736 711.1168h202.9568v-19.456h-202.9568zM631.9104 644.3008h120.32v-19.456h-120.32zM631.9104 577.4336000000001h120.32v-19.456h-120.32zM631.9104 510.6176h120.32v-19.456h-120.32zM631.9104 376.8832h120.32v-19.456h-120.32zM631.9104 243.20000000000005h120.32v-19.456h-120.32zM561.408 443.7504h190.8224v-19.456h-190.8224zM561.408 310.06719999999996h190.8224v-19.456h-190.8224zM466.0224-28.467200000000048c-14.08 0-31.0784 1.7408-46.592 13.2608-23.552 17.5616-29.6448 43.6736-32.256 61.6448-1.8944-0.0512-3.7376-0.0512-5.6832-0.0512-113.6128 0-206.0288 92.416-206.0288 206.08V826.7776C175.5136 864.9216 206.5408 896 244.736 896h534.528c38.1952 0 69.2224-31.0784 69.2224-69.2224V252.41600000000005c0-113.6128-92.416-206.08-206.08-206.08h-1.2288c-2.6624-17.4592-8.5504-40.6016-28.1088-57.4976-12.6464-10.9568-29.3888-17.0496-47.0528-17.0496l-91.0848-0.1024c-2.7136-0.1024-5.7344-0.1536-8.9088-0.1536z m-36.608 129.1776c15.2576-11.6736 17.3056-29.3376 18.2784-37.8368 1.792-15.1552 3.84-24.6272 8.8064-28.3136 2.2016-1.3312 11.6224-1.024 16.7936-0.8704l92.8256 0.1536c2.6624 0 5.0688 0.7168 6.4 1.8432 5.1712 4.5056 6.9632 16.0256 8.4992 28.416 0.6656 8.704 1.7408 23.3472 13.9776 34.5088 12.544 11.6224 27.648 10.5472 33.3824 10.1376 5.5296-0.3584 9.9328-0.4096 14.08-0.3584 79.4112 0 143.9744 64.6144 143.9744 143.9744V826.7776c0 3.8912-3.328 7.168-7.168 7.168H244.736c-3.8912 0-7.168-3.2768-7.168-7.168V252.41600000000005c0-79.4112 64.5632-143.9744 143.9744-143.9744 6.2976 0 12.4416 0.3584 18.688 0.768 10.7008 0.6144 20.992-2.2528 29.184-8.4992z m-37.6832-49.3056h0.3072-0.3072zM548.7616-96.25599999999997H475.2384c-27.8528 0-50.4832 22.6304-50.4832 50.4832v57.1392h62.0544v-45.568h50.3808v45.568h62.0544v-57.1392c0-27.8528-22.6304-50.4832-50.4832-50.4832zM502.272-55.91039999999998h19.456V-128h-19.456z"  horiz-adv-x="1024" />

    
    <glyph glyph-name="water-drop" unicode="&#58887;" d="M512-128c-58.5728 0-117.2992 16.2304-174.6944 48.6912-123.6992 69.9392-195.1232 183.0912-201.1136 318.6176l-0.1024 2.4064 0.0512 2.4576c4.1472 99.5328 28.3136 186.7264 73.8816 266.5472C275.2 624.6912 346.88 733.7984 416.256 839.3216 439.4496 874.5472 472.32 894.6688 508.928 895.9488c35.1744 1.0752 70.1952-16.4352 94.72-48.5888 95.9488-125.5936 202.0864-278.3744 261.5296-459.6736 59.904-182.6816 0.1536-352.8704-159.7952-455.2192C642.4064-107.82719999999995 577.28-128 512-128z m-262.0928 369.9712c5.0176-96.512 53.1968-171.264 143.36-222.2592 84.7872-47.9232 166.8096-45.2096 250.7264 8.5504 54.4768 34.8672 174.5408 136.2432 112.9984 323.9424-54.1696 165.1712-153.6 308.0704-243.7632 426.0352a2.4064 2.4064 0 0 0-0.4608 0.6144c-0.4608-0.6144-0.9728-1.28-1.4848-2.0992-68.352-104.0384-139.1104-211.6608-202.496-322.56-35.9936-62.9248-55.2448-132.352-58.88-212.224z"  horiz-adv-x="1024" />

    
    <glyph glyph-name="time" unicode="&#58886;" d="M512-128C229.6832-128 0 101.68320000000006 0 384S229.6832 896 512 896s512-229.6832 512-512-229.6832-512-512-512z m0 910.2336c-219.5968 0-398.2336-178.6368-398.2336-398.2336s178.6368-398.2336 398.2336-398.2336 398.2336 178.6368 398.2336 398.2336S731.5968 782.2336 512 782.2336zM611.5328 233.11360000000002c-15.0528 0-30.0032 5.9392-41.1648 17.664l-99.5328 104.4992a56.88832 56.88832 0 0 0-15.7184 39.2192V553.8304c0 31.4368 25.4976 56.8832 56.8832 56.8832s56.8832-25.4464 56.8832-56.8832V417.28l83.8656-88.064c21.6576-22.784 20.8384-58.7776-1.9456-80.4352a56.89856 56.89856 0 0 0-39.2704-15.6672z"  horiz-adv-x="1024" />

    
    <glyph glyph-name="infusion-seat" unicode="&#58885;" d="M103.424 321.53599999999994h817.152v-246.272l-190.464 2.048H103.424M927.744-128c-28.672 0-51.712 23.04-51.712 51.712v506.88c0 199.68-162.304 361.984-361.984 361.984h-3.584c-199.68 0-361.984-162.304-361.984-361.984v-506.88c0-28.672-23.04-51.712-51.712-51.712s-51.712 23.04-51.712 51.712v506.88C44.544 687.104 253.44 896 509.952 896h3.584c256.512 0 465.408-208.896 465.408-465.408v-506.88c0.512-28.672-23.04-51.712-51.2-51.712z"  horiz-adv-x="1024" />

    
    <glyph glyph-name="form1" unicode="&#58883;" d="M857.4976 358.144c-97.9968 6.2464-182.528-68.1472-188.7744-166.144-6.2464-97.9968 68.1472-182.528 166.144-188.7744 97.9968-6.2464 182.528 68.1472 188.7744 166.144 6.2464 97.9968-68.1472 182.4768-166.144 188.7744z m-11.3152-320.6144l-105.5744 120.6272h56.1664v138.1376h98.816v-138.1376h56.1664l-105.5744-120.6272zM39.1168 46.0288V723.6608h595.0976v-177.2544h187.0848v-164.1984c8.2944 1.024 16.6912 1.7408 25.2928 1.7408 5.376 0 10.6496-0.4096 15.9232-0.8192V576.6656L663.9616 764.928H25.3952C11.4176 764.928 0 753.5104 0 739.5328v-711.2704c0-13.9776 11.4176-25.3952 25.3952-25.3952h722.8928c-20.2752 11.2128-38.144 26.0096-53.4016 43.1616H39.1168z m638.3104 650.24l112.2816-106.752h-112.2816V696.2688zM739.2256 353.2288V504.32H129.5872v-323.584h513.3824c0 17.5616 2.4576 34.56 6.656 50.7904H459.8272v85.6064h228.608v-8.3968c14.2848 17.5104 31.488 32.512 50.7904 44.4928z m-330.1888-121.7536H180.3776v85.6064h228.608v-85.6064z m0 136.3968H180.3776V453.4784h228.608v-85.6064z m50.7904 0V453.4784h228.608v-85.6064H459.8272z"  horiz-adv-x="1024" />

    
    <glyph glyph-name="msg" unicode="&#58884;" d="M511.999693 896a511.999693 511.999693 0 0 1-455.679727-745.317953l-49.20317-180.172692a46.079972 46.079972 0 0 1 10.700793-43.673574 42.137575 42.137575 0 0 1 41.932775-12.236792l168.345499 43.827174A506.879696 506.879696 0 0 1 511.999693-127.99938599999996a511.999693 511.999693 0 0 1 0 1023.999386z m248.115051-706.815576H263.935842a66.55996 66.55996 0 0 0 0 132.65912h496.178902a66.55996 66.55996 0 0 0 0-132.65912z m0 256.972646H263.935842a66.55996 66.55996 0 0 0 0 132.60792h496.178902a66.55996 66.55996 0 0 0 0-132.60792z"  horiz-adv-x="1024" />

    
    <glyph glyph-name="gh-fuben" unicode="&#58959;" d="M625.152 478.208H398.848c-15.872 0-29.184 12.8-29.184 29.184s12.8 29.184 29.184 29.184h226.304c15.872 0 29.184-12.8 29.184-29.184s-13.312-29.184-29.184-29.184zM512 364.544c-15.872 0-29.184 12.8-29.184 29.184V620.032c0 15.872 12.8 29.184 29.184 29.184s29.184-12.8 29.184-29.184v-226.816c0-15.36-13.312-28.672-29.184-28.672zM812.032 247.296H211.456c-15.872 0-29.184 12.8-29.184 29.184s12.8 29.184 29.184 29.184h601.6c15.872 0 29.184-12.8 29.184-29.184s-13.824-29.184-30.208-29.184zM812.032 115.712H211.456c-15.872 0-29.184 12.8-29.184 29.184s12.8 29.184 29.184 29.184h601.6c15.872 0 29.184-12.8 29.184-29.184s-13.824-29.184-30.208-29.184zM836.096-128H187.904C84.48-128 0-44.032 0 59.904V708.096C0 812.032 84.48 896 187.904 896H860.16l163.84-163.84v-672.768c0-103.424-84.48-187.392-187.904-187.392zM187.904 780.288c-39.424 0-71.68-32.256-71.68-71.68v-648.704c0-39.424 32.256-71.68 71.68-71.68h648.192c39.424 0 71.68 32.256 71.68 71.68v624.64l-95.744 95.744H187.904zM742.912 856.064v-181.76c0-35.84 29.184-65.024 65.024-65.024h135.168l3.584 121.856-131.584 116.224"  horiz-adv-x="1024" />

    
    <glyph glyph-name="default-template" unicode="&#58958;" d="M774.656-128H249.344c-84.48 0-153.088 68.608-153.088 153.088V670.72c0 84.48 68.608 153.088 153.088 153.088h525.312c84.48 0 153.088-68.608 153.088-153.088v-645.632c0-84.48-68.608-153.088-153.088-153.088zM249.344 757.76c-48.128 0-87.04-38.912-87.04-87.04v-645.632c0-48.128 38.912-87.04 87.04-87.04h525.312c48.128 0 87.04 38.912 87.04 87.04V670.72c0 48.128-38.912 87.04-87.04 87.04H249.344zM712.192 686.08H311.808c-2.048 0-4.096 2.048-4.096 4.096V891.904c0 2.048 2.048 4.096 4.096 4.096h400.384c2.048 0 4.096-2.048 4.096-4.096v-201.728c0-2.56-2.048-4.096-4.096-4.096z"  horiz-adv-x="1024" />

    
    <glyph glyph-name="get-file" unicode="&#58957;" d="M867.84 443.904h-73.216V743.936l-78.848 78.848H327.168c-35.328 0-64-28.672-64-64v-314.88H189.952V758.784C189.952 834.56 251.392 896 327.168 896h418.816l121.856-121.856v-330.24zM658.432 873.472v-140.8c0-27.648 22.528-50.176 50.176-50.176h104.448l3.072 94.208-101.888 89.6M771.584-128H119.296c-32.768 0-59.392 26.624-59.392 59.392L0 320c0 32.768 26.624 59.392 59.392 59.392H711.68c32.768 0 59.392-26.624 59.392-59.392l69.632-448h-69.12zM916.48-128l107.52 653.312-117.76 19.456-110.592-671.744 7.68-1.024z"  horiz-adv-x="1024" />

    
    <glyph glyph-name="form" unicode="&#58882;" d="M857.4976 358.144c-97.9968 6.2464-182.528-68.1472-188.7744-166.144-6.2464-97.9968 68.1472-182.528 166.144-188.7744 97.9968-6.2464 182.528 68.1472 188.7744 166.144 6.2464 97.9968-68.1472 182.4768-166.144 188.7744z m-11.3152-320.6144l-105.5744 120.6272h56.1664v138.1376h98.816v-138.1376h56.1664l-105.5744-120.6272zM39.1168 46.0288V723.6608h595.0976v-177.2544h187.0848v-164.1984c8.2944 1.024 16.6912 1.7408 25.2928 1.7408 5.376 0 10.6496-0.4096 15.9232-0.8192V576.6656L663.9616 764.928H25.3952C11.4176 764.928 0 753.5104 0 739.5328v-711.2704c0-13.9776 11.4176-25.3952 25.3952-25.3952h722.8928c-20.2752 11.2128-38.144 26.0096-53.4016 43.1616H39.1168z m638.3104 650.24l112.2816-106.752h-112.2816V696.2688zM739.2256 353.2288V504.32H129.5872v-323.584h513.3824c0 17.5616 2.4576 34.56 6.656 50.7904H459.8272v85.6064h228.608v-8.3968c14.2848 17.5104 31.488 32.512 50.7904 44.4928z m-330.1888-121.7536H180.3776v85.6064h228.608v-85.6064z m0 136.3968H180.3776V453.4784h228.608v-85.6064z m50.7904 0V453.4784h228.608v-85.6064H459.8272z"  horiz-adv-x="1024" />

    
    <glyph glyph-name="Imagedownload" unicode="&#58881;" d="M222.208 555.1616m-73.1136 0a73.1136 73.1136 0 1 1 146.2272 0 73.1136 73.1136 0 1 1-146.2272 0ZM644.096 167.0144H39.168V723.7632h782.1824v-341.504c8.2944 1.024 16.6912 1.7408 25.2928 1.7408 5.376 0 10.6496-0.4096 15.9232-0.8192V739.6352c0 13.9776-11.4176 25.3952-25.3952 25.3952H25.3952C11.4176 765.0304 0 753.6128 0 739.6352v-711.2704c0-13.9776 11.4176-25.3952 25.3952-25.3952h722.8928c-58.7264 32.5632-99.4304 93.3376-104.192 164.0448zM714.2912 334.848l-192.1536 236.5952L394.24 384.1536 319.6416 490.752l-182.7328-242.5856h515.072c23.552 45.6192 29.0816 58.112 62.3104 86.6816zM857.4976 358.2464c-97.9968 6.2464-182.528-68.1472-188.7744-166.144-6.2464-97.9968 68.1472-182.528 166.144-188.7744 97.9968-6.2464 182.528 68.1472 188.7744 166.144s-68.1472 182.528-166.144 188.7744z m-11.3152-320.6144l-105.5744 120.6272h56.1664v138.1376h98.816v-138.1376h56.1664l-105.5744-120.6272z"  horiz-adv-x="1024" />

    
    <glyph glyph-name="icon-test" unicode="&#58955;" d="M761.46176 463.18592H262.57408c-19.22048 0-34.77504 15.54944-34.77504 34.76992s15.55456 34.76992 34.77504 34.76992h498.88768c19.22048 0 34.77504-15.54944 34.77504-34.76992s-15.55456-34.76992-34.77504-34.76992zM761.46176 254.45376H262.57408a34.75456 34.75456 0 0 0-34.77504 34.76992 34.75456 34.75456 0 0 0 34.77504 34.77504h498.88768a34.75456 34.75456 0 0 0 34.77504-34.77504 34.75456 34.75456 0 0 0-34.77504-34.76992zM786.08384-128H237.91616c-94.36672 0-171.14112 76.7744-171.14112 171.14624V724.85888C66.77504 819.22048 143.55456 896 237.91616 896h562.56512l156.74368-156.74368v-696.11008c0-94.37184-76.77952-171.14624-171.14112-171.14624zM237.91616 826.45504c-56.02816 0-101.60128-45.568-101.60128-101.59616v-681.71264c0-56.02816 45.568-101.60128 101.60128-101.60128h548.16256c56.02816 0 101.60128 45.568 101.60128 101.60128V710.45632L771.6864 826.45504H237.91616zM688.11776 880.37888v-191.04256c0-37.6576 30.52544-68.15232 68.18304-68.15232h141.97248l3.90656 128.14848-138.4704 121.472"  horiz-adv-x="1024" />

    
    <glyph glyph-name="icon-test1" unicode="&#58956;" d="M761.46176 463.18592H262.57408c-19.22048 0-34.77504 15.54944-34.77504 34.76992s15.55456 34.76992 34.77504 34.76992h498.88768c19.22048 0 34.77504-15.54944 34.77504-34.76992s-15.55456-34.76992-34.77504-34.76992zM761.46176 254.45376H262.57408a34.75456 34.75456 0 0 0-34.77504 34.76992 34.75456 34.75456 0 0 0 34.77504 34.77504h498.88768a34.75456 34.75456 0 0 0 34.77504-34.77504 34.75456 34.75456 0 0 0-34.77504-34.76992zM786.08384-128H237.91616c-94.36672 0-171.14112 76.7744-171.14112 171.14624V724.85888C66.77504 819.22048 143.55456 896 237.91616 896h562.56512l156.74368-156.74368v-696.11008c0-94.37184-76.77952-171.14624-171.14112-171.14624zM237.91616 826.45504c-56.02816 0-101.60128-45.568-101.60128-101.59616v-681.71264c0-56.02816 45.568-101.60128 101.60128-101.60128h548.16256c56.02816 0 101.60128 45.568 101.60128 101.60128V710.45632L771.6864 826.45504H237.91616zM688.11776 880.37888v-191.04256c0-37.6576 30.52544-68.15232 68.18304-68.15232h141.97248l3.90656 128.14848-138.4704 121.472"  horiz-adv-x="1024" />

    
    <glyph glyph-name="camera" unicode="&#58942;" d="M721.8176 637.8496V772.096c0 9.5744-7.7824 17.3568-17.3568 17.3568H313.0368c-9.5744 0-17.3568-7.7824-17.3568-17.3568v-134.144l-41.8816-0.7168H17.3568C7.7824 637.2352 0 629.504 0 619.8784V-4.096c0-9.5744 7.7824-17.3568 17.3568-17.3568h989.2864c9.5744 0 17.3568 7.7824 17.3568 17.3568V619.8784c0 9.5744-7.7824 17.3568-17.3568 17.3568h-243.1488l-41.6768 0.6144z m-207.9744-557.8752c-139.264 0-252.2112 112.9472-252.2112 252.2112 0 139.2128 112.9472 252.16 252.2112 252.16 139.2128 0 252.16-112.9472 252.16-252.16 0-139.264-112.9472-252.2112-252.16-252.2112zM650.0864 332.1856c0-75.264-61.0304-136.2432-136.2432-136.2432-75.264 0-136.2944 60.9792-136.2944 136.2432 0 75.2128 61.0304 136.2432 136.2944 136.2432 75.2128 0 136.2432-61.0304 136.2432-136.2432z"  horiz-adv-x="1024" />

    
    <glyph glyph-name="searchfor" unicode="&#58943;" d="M457.0624-18.1248c-117.0944 0-234.1888 44.5952-323.328 133.7344-178.2784 178.2784-178.2784 468.3776 0 646.656s468.3776 178.2784 646.656 0c178.3296-178.2784 178.3296-468.4288 0-646.7072-89.1392-89.088-206.2336-133.6832-323.328-133.6832z m0 768.3584c-79.7696 0-159.5392-30.3616-220.2624-91.0848-121.3952-121.4464-121.3952-319.0272 0-440.5248 121.4464-121.3952 319.0272-121.3952 440.4736 0 121.4464 121.4464 121.4464 319.0272 0 440.5248-60.672 60.7232-140.4928 91.0848-220.2112 91.0848zM752.8448 248.7808l249.2416-249.2416c29.184-29.184 29.184-76.4416 0-105.6256-29.184-29.184-76.4416-29.184-105.6256 0l-249.2416 249.2416"  horiz-adv-x="1024" />

    
    <glyph glyph-name="sm" unicode="&#58944;" d="M1024 522.5472h-145.2032V750.7968h-228.2496V896H1024zM145.2032 522.5472H0V896h373.4528v-145.2032H145.2032zM373.4528-128H0v373.4528h145.2032v-228.2496h228.2496zM1024-128h-373.4528v145.2032h228.2496v228.2496H1024zM254.208 456.6016h515.6352v-145.2032H254.208z"  horiz-adv-x="1024" />

    
    <glyph glyph-name="submit" unicode="&#58945;" d="M455.86432 139.42783999999995l-193.8944 209.96608 107.49952 99.21536 86.39488-93.53728 198.74816 215.28576 107.46368-99.21536zM512 749.71136c201.64608 0 365.71648-164.0704 365.71648-365.71648 0-201.64096-164.0704-365.71136-365.71648-365.71136-201.64096 0-365.71648 164.0704-365.71648 365.71136 0.00512 201.64608 164.08064 365.71648 365.71648 365.71648M512 896C229.21728 896 0 666.78784 0 384c0-282.78272 229.21728-512 512-512s512 229.21728 512 512C1024 666.78784 794.78784 896 512 896z"  horiz-adv-x="1024" />

    
    <glyph glyph-name="print" unicode="&#58946;" d="M956.416 619.52h-64.512V790.528C891.904 848.384 844.8 896 787.456 896h-552.96C176.64 896 130.048 848.384 130.048 790.528V619.52H67.584C30.208 619.52 0 588.8 0 551.424v-414.72c0-37.888 30.208-68.096 67.584-68.096h61.44v-91.136c0-57.856 47.104-105.472 104.448-105.472h553.984c57.344 0 104.448 47.104 104.448 105.472v91.136h64.512c37.376 0 67.584 30.72 67.584 68.096v414.72c0 37.376-30.208 68.096-67.584 68.096z m-752.64 171.008c0 16.896 13.824 30.72 30.72 30.72h553.472c16.896 0 30.72-13.824 30.72-30.72V619.52h-614.4V790.528z m614.4-813.056c0-16.896-13.824-30.72-30.72-30.72H233.472c-16.896 0-30.72 13.824-30.72 30.72v349.184c0 16.896 13.824 30.72 30.72 30.72h553.984c16.896 0 30.72-13.824 30.72-30.72v-349.184zM753.664 256H286.72c-20.48 0-36.864-16.896-36.864-37.376s16.384-37.376 36.864-37.376h466.944c20.48 0 36.864 16.896 36.864 37.376 0.512 20.992-16.384 37.376-36.864 37.376zM753.664 85.50400000000002H286.72c-20.48 0-36.864-16.896-36.864-37.376s16.384-37.376 36.864-37.376h466.944c20.48 0 36.864 16.896 36.864 37.376 0.512 20.992-16.384 37.376-36.864 37.376z"  horiz-adv-x="1024" />

    
    <glyph glyph-name="yq" unicode="&#58947;" d="M671.744 590.848H352.256c-31.232 0-56.832 25.6-56.832 56.832V744.448C295.424 827.904 363.52 896 446.976 896h129.536c83.456 0 151.552-68.096 151.552-151.552v-96.768c0.512-31.232-25.088-56.832-56.32-56.832zM409.088 704.512h205.824v39.936c0 20.992-16.896 37.888-37.888 37.888H446.976c-20.992 0-37.888-16.896-37.888-37.888v-39.936zM669.696 230.4c0-11.776-9.728-21.504-21.504-21.504h-75.264v-75.264c0-11.776-9.728-21.504-21.504-21.504H472.064c-11.776 0-21.504 9.728-21.504 21.504v75.264H375.808c-11.776 0-21.504 9.728-21.504 21.504v79.36c0 11.776 9.728 21.504 21.504 21.504h75.264V406.528c0 11.776 9.728 21.504 21.504 21.504h79.36c11.776 0 21.504-9.728 21.504-21.504v-75.264h75.264c11.776 0 21.504-9.728 21.504-21.504V230.4zM789.504-128H234.496C105.472-128 0-22.016 0 108.544V468.48c0 130.048 105.472 236.032 234.496 236.032h554.496c129.536 0 234.496-105.984 234.496-236.032v-359.936c0.512-130.56-104.96-236.544-233.984-236.544zM234.496 590.848c-66.56 0-120.832-54.784-120.832-122.368v-359.936c0-67.584 54.272-122.368 120.832-122.368h554.496c66.56 0 120.832 54.784 120.832 122.368V468.48c0 67.584-54.272 122.368-120.832 122.368H234.496z"  horiz-adv-x="1024" />

    
    <glyph glyph-name="zf" unicode="&#58948;" d="M914.5856-128c-28.0064 0-55.9616 10.7008-77.312 32.0512L32.0512 709.3248c-42.7008 42.7008-42.7008 111.9232 0 154.624 42.8032 42.752 112.0256 42.5984 154.624 0l805.2224-805.3248c42.7008-42.7008 42.7008-111.9232 0-154.624a109.22496 109.22496 0 0 0-77.312-32zM109.4144-128c-27.9552 0-55.9616 10.7008-77.312 32.0512-42.7008 42.7008-42.7008 111.9232 0 154.624L837.2736 863.9488c42.7008 42.7008 111.9232 42.7008 154.624 0s42.7008-111.9232 0-154.624L186.7264-95.9488a109.15328 109.15328 0 0 0-77.312-32.0512z"  horiz-adv-x="1024" />

    
    <glyph glyph-name="wm" unicode="&#58949;" d="M512.153599-127.9488c-123.801092 1.075196-417.534288 20.479916-435.710213 190.20722-17.919927 166.501717 29.28628 307.915538 166.450517 412.926307 21.96471 16.844731 34.662258 16.486332 55.500573-3.942384 120.882704-118.885913 308.837134-118.220315 428.695842 1.484794 20.377516 20.326317 32.870265 18.227125 53.145382 2.815988 107.41716-81.663665 163.992928-189.490423 170.239302-323.992271 1.075196-22.374308 0.921596-44.851016 0.1536-67.225325-6.399974-188.466427-302.795559-213.451925-438.475003-212.274329zM717.720757 688.278253c-0.972796-114.68753-92.518021-204.747961-207.51275-203.928764-114.380331 0.767997-204.389562 92.364421-203.928764 207.51275C306.791241 805.935371 399.104463 896.712599 513.843192 895.995802c114.124332-0.716797 204.85036-93.132418 203.877565-207.717549z"  horiz-adv-x="1024" />

    
    <glyph glyph-name="save" unicode="&#58950;" d="M701.952 532.48h-112.128c-1.536 0-2.56 1.024-2.56 2.56V749.568c0 1.536 1.024 2.56 2.56 2.56h112.128c1.536 0 2.56-1.024 2.56-2.56v-214.528c0-1.536-1.024-2.56-2.56-2.56zM1024 619.52c0 18.944-6.656 37.888-20.992 52.736L800.256 874.496C785.408 889.344 766.464 896 747.52 896H146.432C66.048 896 0 829.952 0 749.568v-731.648C0-61.952 66.048-128 146.432-128h731.648c80.384 0 146.432 66.048 146.432 146.432L1024 619.52zM141.824 755.2c0 19.968 16.384 36.352 36.352 36.352h541.696c19.968 0 36.352-16.384 36.352-36.352v-225.28c0-19.968-16.384-36.352-36.352-36.352H178.176c-19.968 0-36.352 16.384-36.352 36.352v225.28z m740.352-742.4c0-19.968-16.384-36.352-36.352-36.352H178.176c-19.968 0-36.352 16.384-36.352 36.352v334.336c0 19.968 16.384 36.352 36.352 36.352h667.648c19.968 0 36.352-16.384 36.352-36.352v-334.336z"  horiz-adv-x="1024" />

    
    <glyph glyph-name="edit" unicode="&#58951;" d="M885.8624 543.8976l-215.1936 215.04-508.8768-508.9792C102.0928 190.2592-45.7216-54.272 13.9776-114.0224c59.6992-59.8016 304.2816 88.0128 363.9808 147.6608l483.8912 483.8912M928.8192 584.5504l50.432 50.3296c59.648 59.7504 59.648 156.5184 0 216.32-59.8016 59.6992-156.5696 59.6992-216.2688 0l-65.8944-65.9456 214.9888-215.0912"  horiz-adv-x="1024" />

    
    <glyph glyph-name="fast" unicode="&#58952;" d="M607.1296 896L158.3104 262.4512h298.2912L416.8192-128l448.8704 630.4256h-303.9744z"  horiz-adv-x="1024" />

    
    <glyph glyph-name="gh" unicode="&#58953;" d="M625.152 478.208H398.848c-15.872 0-29.184 12.8-29.184 29.184s12.8 29.184 29.184 29.184h226.304c15.872 0 29.184-12.8 29.184-29.184s-13.312-29.184-29.184-29.184zM512 364.544c-15.872 0-29.184 12.8-29.184 29.184V620.032c0 15.872 12.8 29.184 29.184 29.184s29.184-12.8 29.184-29.184v-226.816c0-15.36-13.312-28.672-29.184-28.672zM740.864 247.296H283.136c-15.872 0-29.184 12.8-29.184 29.184s12.8 29.184 29.184 29.184h458.24c15.872 0 29.184-12.8 29.184-29.184s-13.312-29.184-29.696-29.184zM740.864 115.712H283.136c-15.872 0-29.184 12.8-29.184 29.184s12.8 29.184 29.184 29.184h458.24c15.872 0 29.184-12.8 29.184-29.184s-13.312-29.184-29.696-29.184zM764.416-128H259.584C156.16-128 71.68-44.032 71.68 59.904V708.096C71.68 812.032 156.16 896 259.584 896H788.48l163.84-163.84v-672.768c0-103.424-84.48-187.392-187.904-187.392zM259.584 780.288c-39.424 0-71.68-32.256-71.68-71.68v-648.704c0-39.424 32.256-71.68 71.68-71.68h504.832c39.424 0 71.68 32.256 71.68 71.68v624.64l-95.744 95.744H259.584zM671.232 856.064v-181.76c0-35.84 29.184-65.024 65.024-65.024h135.168l3.584 121.856-131.584 116.224"  horiz-adv-x="1024" />

    
    <glyph glyph-name="Add" unicode="&#58954;" d="M1024 352c0-35.35872-28.71296-64-64-64h-896c-35.4304 0-64 28.64128-64 64v64c0 35.35872 28.5696 64 64 64h896c35.28704 0 64-28.64128 64-64v-64zM544 896c35.28704 0 64-28.64128 64-64v-896c0-35.35872-28.71296-64-64-64h-64c-35.4304 0-64 28.64128-64 64v896c0 35.35872 28.5696 64 64 64h64z"  horiz-adv-x="1024" />

    
    <glyph glyph-name="t" unicode="&#58927;" d="M1024-69.632H0V837.632h60.416v-846.848H1024zM558.08 192.512L308.736 395.264l-261.12-181.76-34.816 49.664 299.008 207.36 247.296-201.216 414.72 322.048 36.864-48.128z"  horiz-adv-x="1024" />

    
    <glyph glyph-name="t1" unicode="&#58938;" d="M388.096 821.248h247.296v-345.6H388.096zM512 173.568L247.808 475.136h528.384zM1024-53.248H0v414.72h60.416v-354.304h903.168v354.304H1024z"  horiz-adv-x="1024" />

    
    <glyph glyph-name="t2" unicode="&#58940;" d="M749.568-128H274.432c-58.88 0-106.496 47.616-106.496 106.496V789.504C167.936 847.872 215.552 896 274.432 896h474.624c58.88 0 106.496-48.128 106.496-106.496v-810.496c0.512-59.392-47.104-107.008-105.984-107.008zM274.432 836.096c-25.6 0-46.592-20.992-46.592-46.592v-810.496c0-25.6 20.992-46.592 46.592-46.592h474.624c25.6 0 46.592 20.992 46.592 46.592V789.504c0 25.6-20.992 46.592-46.592 46.592H274.432zM594.432 436.224h104.96v-104.96h-104.96z"  horiz-adv-x="1024" />

    
    <glyph glyph-name="t3" unicode="&#58941;" d="M993.792 836.608H30.208c-16.384 0-30.208-13.824-30.208-30.208v-844.288c0-16.384 13.824-30.208 30.208-30.208h963.584c16.384 0 30.208 13.824 30.208 30.208V806.4c0 16.384-13.824 30.208-30.208 30.208z m-18.432-856.064H46.592V641.5360000000001h928.768v-660.992zM27.648 461.312h982.528v-60.416H27.648zM315.4688-42.854400000000055V662.1696h60.416v-705.024zM644.4032-41.11360000000002V663.9104h60.416v-705.024zM35.328 221.18399999999997h982.528v-60.416H35.328z"  horiz-adv-x="1024" />

    
    <glyph glyph-name="patient" unicode="&#58928;" d="M331.91779 706.631352c0 106.492038 83.043311 191.429679 184.825125 189.330557 89.494271-1.89433 166.086622-73.008484 174.022326-169.312102 6.399762-77.872303-11.109987-152.621522-59.338592-216.260755-69.424617-91.849383-176.735825-88.572705-243.242152 5.887781-35.531478 50.481322-56.317905 120.725109-56.266707 190.354519zM763.159348 16.481025000000045c34.14913 14.130674 56.164311 47.05105 56.164311 83.913679 0 50.122935-40.804882 90.927817-90.927818 90.927817s-90.927817-40.804882-90.927817-90.927817c0-36.862629 22.015181-69.834202 56.113112-83.913679 11.929156-4.915017 19.762465-16.639381 19.762465-29.541301V-128h30.10448v114.939724a31.896413 31.896413 0 0 0 19.711267 29.541301zM990.53009 266.122939c-46.795059 39.320137-107.771991 70.090193-162.502755 95.894032-39.320137 18.584909-89.647865 50.225332-134.599793 50.225332L511.981492 224.29409499999997 330.535442 412.242303c-45.003126 0-95.330854-31.691621-134.599793-50.225332-54.730764-25.80384-115.707696-56.573895-162.502755-95.894032-42.699212-35.889865-32.305998-102.1402-32.305998-152.007146 0-39.576128 0.051198-107.26001 0.051198-146.887335 0-52.580444 42.084834-95.228458 93.999703-95.228458h833.60739c51.966067 0 94.050901 42.699212 94.050901 95.228458v146.887335c0 49.866945 10.444411 116.11728-32.305998 152.007146zM883.321278 100.44590200000005c0 85.449621-69.475815 154.925437-154.925437 154.925437s-154.925437-69.475815-154.925436-154.925437c0-55.396339 29.131716-105.621671 75.875577-133.166246V-128h63.997619v114.939724c0 12.953118-7.833309 24.626284-19.762465 29.541301a90.569431 90.569431 0 0 0-56.113112 83.913679c0 50.122935 40.804882 90.927817 90.927817 90.927817s90.927817-40.804882 90.927818-90.927817c0-36.862629-22.015181-69.834202-56.164311-83.913679a32.024409 32.024409 0 0 1-19.762465-29.541301V-128h63.99762v95.228458a154.321299 154.321299 0 0 1 75.926775 133.217444zM728.395841 100.44590200000005m-47.051049 0a47.05105 47.05105 0 1 1 94.102099 0 47.05105 47.05105 0 1 1-94.102099 0Z"  horiz-adv-x="1024" />

    
    <glyph glyph-name="schedule" unicode="&#58929;" d="M463.9744 810.9568h559.9744v-130.816H463.9744zM463.9744 565.8112h559.9744v-130.816H463.9744zM463.9744 336.84479999999996h559.9744v-130.816H463.9744zM463.9744 91.69920000000002h559.9744v-130.816H463.9744zM42.9568 336.84479999999996h306.5856v-375.9616H42.9568zM156.3136 456.6016L0 625.9200000000001l96.0512 88.7808 60.2624-65.28 147.1488 159.3856L399.5648 720.0768z"  horiz-adv-x="1025" />

    
    <glyph glyph-name="template" unicode="&#58930;" d="M741.12 463.5136H282.9312c-16.0256 0-28.928 12.9536-28.928 28.928 0 16.0256 12.9536 28.928 28.928 28.928h458.1888a28.928 28.928 0 0 0 0-57.856zM741.12 264.80640000000005H282.9312c-16.0256 0-28.928 12.9536-28.928 28.928 0 16.0256 12.9536 28.928 28.928 28.928h458.1888a28.928 28.928 0 0 0 0-57.856zM764.5184-128H259.4816c-103.4752 0-187.648 84.1728-187.648 187.648V708.352C71.8336 811.8272 156.0064 896 259.4816 896H788.48l163.6864-163.6864v-672.6144c0-103.5264-84.1728-187.6992-187.648-187.6992zM259.4816 780.1856c-39.6288 0-71.8848-32.2048-71.8848-71.8848v-648.6528c0-39.6288 32.2048-71.8848 71.8848-71.8848h505.0368c39.6288 0 71.8848 32.2048 71.8848 71.8848V684.3392l-95.8464 95.8464H259.4816zM671.2832 856.32v-181.76c0-35.7888 29.0304-64.8704 64.8704-64.8704h135.1168l3.6864 121.9584-131.7376 115.5584"  horiz-adv-x="1024" />

    
    <glyph glyph-name="data" unicode="&#58931;" d="M578.5088 6.1440000000000055V-128c232.448 29.184 416.4096 213.9136 445.4912 447.4368h-133.8368c-27.0848-159.5392-152.3712-285.44-311.6544-313.2928zM890.1632 448.5632H1024C994.9184 682.0864 810.9568 866.816 578.5088 896v-134.144c159.2832-27.8528 284.5696-153.7536 311.6544-313.2928zM128 384c0 190.8736 139.4176 348.8256 321.9456 378.5728V896C217.5488 866.816 33.4848 682.0864 4.4544 448.5632 1.8432 427.3664 0 405.9136 0 384c0-21.9648 1.8432-43.3664 4.4544-64.5632C33.4848 85.91359999999997 217.5488-98.81600000000003 449.9456-128v133.4272C267.4176 35.17439999999999 128 193.1264 128 384z"  horiz-adv-x="1024" />

    
    <glyph glyph-name="statistics" unicode="&#58932;" d="M230.2976-32.20479999999998c0-14.4896-11.8272-26.2656-26.368-26.2656H26.3168A26.2656 26.2656 0 0 0 0-32.20479999999998V484.1984c0 14.4896 11.776 26.2656 26.3168 26.2656h177.6128c14.5408 0 26.368-11.7248 26.368-26.2656v-516.4032zM617.5232-32.20479999999998c0-14.4896-11.7248-26.2656-26.2656-26.2656H413.6448c-14.6432 0-26.368 11.7248-26.368 26.2656V800.2048c0 14.4896 11.7248 26.2656 26.368 26.2656h177.6128c14.4896 0 26.2656-11.776 26.2656-26.2656v-832.4096zM1024-32.20479999999998c0-14.4896-11.7248-26.2656-26.368-26.2656h-177.6128c-14.5408 0-26.368 11.7248-26.368 26.2656V642.2016c0 14.4896 11.8272 26.2656 26.368 26.2656h177.6128c14.6432 0 26.368-11.7248 26.368-26.2656v-674.4064z"  horiz-adv-x="1024" />

    
    <glyph glyph-name="business" unicode="&#58933;" d="M595.486328 349.218295c0-96.99975-78.623544-175.623294-175.623294-175.623294-96.99975 0-175.623294 78.623544-175.623294 175.623294 0 97.050937 78.623544 175.623294 175.623294 175.623295 96.948563 0 175.623294-78.572357 175.623294-175.623295zM413.874131 754.365009c0-78.265234-63.472132-141.686178-141.686178-141.686179-78.265234 0-141.686178 63.420945-141.686178 141.686179S193.922719 896 272.187953 896s141.686178-63.420945 141.686178-141.634991zM982.615146 355.20719799999995c0-78.265234-63.472132-141.686178-141.686178-141.686178-78.265234 0-141.686178 63.420945-141.686179 141.686178s63.420945 141.686178 141.686179 141.686179 141.686178-63.420945 141.686178-141.686179zM318.102874 13.942113999999947c0-78.265234-63.472132-141.686178-141.686178-141.686178-78.265234 0-141.686178 63.420945-141.686179 141.686178s63.420945 141.686178 141.686179 141.686179c78.214046 0 141.686178-63.420945 141.686178-141.686179zM197.659385-15.541714999999954l-51.903824 37.724969 243.343964 335.224994L242.243439 742.899075 302.132467 765.779755l159.243389-417.994701zM432.475561 316.54550400000005l1.36158 64.127328 377.172906-8.00056-1.361579-64.12221z"  horiz-adv-x="1024" />

    
    <glyph glyph-name="device" unicode="&#58934;" d="M896 672.2048v-128H128v128h768m128 128H0v-384h1024v384zM896 223.79520000000002v-128H128v128h768m128 128H0v-384h1024v384z"  horiz-adv-x="1024" />

    
    <glyph glyph-name="groupinjury" unicode="&#58935;" d="M305.5104 679.424c0-72.704-58.88-131.4304-131.4304-131.4304-72.6016 0-131.4304 58.7264-131.4304 131.4304 0 72.5504 58.8288 131.4304 131.4304 131.4304 72.5504 0.0512 131.4304-58.8288 131.4304-131.4304zM981.2992 679.424c0-72.704-58.8288-131.4304-131.3792-131.4304S718.4896 606.72 718.4896 679.424c0 72.5504 58.88 131.4304 131.4304 131.4304s131.3792-58.8288 131.3792-131.4304zM668.0576 614.5024000000001c0-86.1184-69.888-156.0064-156.1088-156.0064-86.1696 0-156.1088 69.888-156.1088 156.0064 0 86.272 69.888 156.0576 156.1088 156.0576 86.2208 0 156.1088-69.7856 156.1088-156.0576zM348.16 347.0848c-10.24-15.8208-16.3328-34.56-16.3328-54.8352v-119.3984c10.0864 18.2784 16.3328 39.0144 16.3328 61.3376v112.896zM692.1728 172.74879999999996v119.5008c0 20.2752-6.144 39.0656-16.384 54.8864v-112.9472c0-22.4256 6.2464-43.1104 16.384-61.44zM344.1664 418.1504C330.4448 474.112 280.32 515.7375999999999 220.16 515.7375999999999h-92.16c-70.7072 0-128-57.2416-128-128v-153.5488c0-70.7072 57.2928-128 128-128h92.16c21.1968 0 40.96 5.6832 58.5728 14.7968v171.264c-0.0512 52.0192 25.9584 97.8944 65.4336 125.9008zM895.9488 515.7375999999999h-92.2112c-60.16 0-110.2848-41.6256-123.9552-97.6384 39.4752-28.0064 65.4848-73.8816 65.4848-125.9008v-171.264c17.6128-9.1136 37.3248-14.7968 58.5216-14.7968h92.2112c70.7072 0 128 57.2928 128 128v153.6c0 70.7584-57.344 128-128.0512 128zM692.1728 172.74879999999996v119.5008c0 20.2752-6.144 39.0656-16.384 54.8864-18.0736 28.0064-49.3568 46.6432-85.0432 46.6432H433.2544c-35.7376 0-67.072-18.7392-85.1456-46.6944-10.24-15.8208-16.3328-34.56-16.3328-54.8352v-230.4c0-55.9616 45.5168-101.4272 101.4272-101.4272h157.44c55.9616 0 101.4272 45.5168 101.4272 101.4272v110.8992z"  horiz-adv-x="1024" />

    
    <glyph glyph-name="Patientlist" unicode="&#58936;" d="M1024 672.0512c0-35.3792-28.6208-64-64-64h-896C28.6208 608.0512 0 636.672 0 672.0512v64c0 35.2256 28.6208 64 64 64h896c35.3792 0 64-28.7744 64-64v-64zM1024 352.0512c0-35.3792-28.6208-64-64-64h-896c-35.3792 0-64 28.6208-64 64v64c0 35.2768 28.6208 64 64 64h896c35.3792 0 64-28.7232 64-64v-64zM1024 31.948800000000006c0-35.2768-28.6208-64-64-64h-896c-35.3792 0-64 28.7232-64 64v64c0 35.3792 28.6208 64 64 64h896c35.3792 0 64-28.6208 64-64v-64z"  horiz-adv-x="1024" />

    
    <glyph glyph-name="workbench" unicode="&#58937;" d="M789.4016 5.888000000000034H234.6496C105.2672 5.888000000000034 0 111.87199999999996 0 242.22720000000004V659.0464C0 789.3504 105.2672 895.3344 234.6496 895.3344h554.7008c129.3824 0 234.5984-105.984 234.5984-236.288v-416.8192c0.0512-130.3552-105.1648-236.3392-234.5472-236.3392zM234.6496 781.568c-66.6624 0-120.8832-54.9376-120.8832-122.5216v-416.8192c0-67.5328 54.2208-122.5728 120.8832-122.5728h554.7008c66.6112 0 120.832 54.9888 120.832 122.5728V659.0464c0 67.5328-54.2208 122.5216-120.832 122.5216H234.6496zM704.8704-127.33439999999996H319.1296c-31.4368 0-56.8832 25.4464-56.8832 56.8832s25.4976 56.8832 56.8832 56.8832h385.792c31.4368 0 56.8832-25.4464 56.8832-56.8832s-25.4464-56.8832-56.9344-56.8832z"  horiz-adv-x="1024" />

    
    <glyph glyph-name="deviceconnection" unicode="&#58939;" d="M60.245453 518.8096l220.6208 220.6208 220.5184-220.6208zM501.384653 458.5984H60.245453C35.874253 458.5984 13.909453 473.2928 4.591053 495.7696c-9.3184 22.528-4.1984 48.384 13.056 65.6384l220.5696 220.5696c11.3152 11.3152 26.624 17.664 42.5984 17.664s31.2832-6.3488 42.5984-17.664l220.5184-220.5696c17.2544-17.2544 22.4256-43.1616 13.056-65.6384-9.2672-22.4768-31.232-37.1712-55.6032-37.1712zM205.653453 579.0208h150.4256L280.866253 654.2336 205.653453 579.0208zM274.978253-31.64160000000004c-33.28 0-60.2112 26.9312-60.2112 60.2112V719.4624c0 33.28 26.9824 60.2112 60.2112 60.2112s60.2112-26.9824 60.2112-60.2112v-690.8928c0-33.28-26.9824-60.2112-60.2112-60.2112zM963.823053 249.19039999999995l-220.5696-220.6208-220.5184 220.6208zM743.253453-31.64160000000004c-15.9744 0-31.2832 6.3488-42.5984 17.664l-220.5184 220.5696a60.19072 60.19072 0 0 0-13.056 65.6384c9.3184 22.528 31.2832 37.1712 55.6544 37.1712h441.088c24.3712 0 46.336-14.6432 55.6544-37.1712 9.3696-22.528 4.1984-48.384-13.056-65.6384l-220.5184-220.5696c-11.3664-11.3152-26.624-17.664-42.6496-17.664z m-75.1616 220.6208l75.1616-75.2128 75.1616 75.2128h-150.3232zM737.467853-11.673599999999965c-33.28 0-60.2112 26.9312-60.2112 60.2112V739.4304c0 33.28 26.9312 60.2112 60.2112 60.2112s60.2112-26.9824 60.2112-60.2112v-690.8928c0-33.28-26.9312-60.2112-60.2112-60.2112z"  horiz-adv-x="1024" />

    
    <glyph glyph-name="kc" unicode="&#58923;" d="M99.28192 371.78880000000004h922.90048c0.6912-8.94464 1.6896-16.1024 1.6896-23.1936 0.12288-66.60096 0.20992-206.42816 0-273.05472-0.06656-36.16768-12.49792-47.7952-49.64864-47.77984-37.64224 0.05632-49.07008 10.99776-49.35168 47.73376-0.14848 28.5696 0 57.19552 0 87.66976H99.2256c0-30.6688 0.22016-60.04736-0.07168-89.40544-0.43008-35.7632-12.30336-46.26432-51.15392-46.06976-35.00032 0.22528-47.8464 12.5696-47.92832 47.25248C0 354.53952000000004 0 560.99328 0 694.2566400000001c0 17.75104 0.34816 39.02464 19.99872 43.24864 20.2752 4.39808 44.06784 3.77344 63.44704-2.97472 8.832-3.04128 14.90432-26.06592 15.0528-40.15104 1.22368-119.24992 0.72192-165.34528 0.77824-284.5952l0.00512-37.99552z"  horiz-adv-x="1024" />

    
    <glyph glyph-name="reduction" unicode="&#58926;" d="M1024 384c0-34.95936-28.31872-63.25248-63.26272-63.25248H63.24736C28.3136 320.75264 0 349.03552 0 384c0 34.94912 28.3136 63.25248 63.24736 63.25248h897.50016C995.68128 447.24736 1024 418.95936 1024 384z"  horiz-adv-x="1024" />

    
    <glyph glyph-name="close" unicode="&#58925;" d="M19.456 876.544C44.032 901.12 83.968 901.12 109.056 876.544l894.976-894.976c24.576-24.576 24.576-64.512 0-89.6-24.576-24.576-64.512-24.576-89.6 0L19.456 786.944C-5.12 812.032-5.12 851.968 19.456 876.544zM19.456-108.54399999999998c-24.576 24.576-24.576 64.512 0 89.6L914.944 876.544c24.576 24.576 64.512 24.576 89.6 0 24.576-24.576 24.576-64.512 0-89.6L109.056-108.54399999999998c-25.088-24.576-65.024-24.576-89.6 0z"  horiz-adv-x="1024" />

    
    <glyph glyph-name="star" unicode="&#58922;" d="M1022.745434 506.837948c-3.020769 9.70742-11.018126 16.793426-20.648747 18.247491l-322.807538 49.207811-144.372266 306.771865C530.621247 890.20934 521.733019 896 512 896c-9.727899 0-18.626367-5.79066-22.937363-14.934885L344.690372 574.29837 21.898193 525.090559C12.252212 523.631374 4.254855 516.550487 1.254566 506.843068c-3.000289-9.70742-0.501755-20.351789 6.476733-27.499236l233.582223-238.789208-55.14695-337.18435c-1.643503-10.040216 2.293736-20.228911 10.168215-26.229489s18.33453-6.80953 26.936041-2.037739L512 34.282199l288.708692-159.184273a24.632065 24.632065 0 0 1 11.908997-3.087328 24.790783 24.790783 0 0 1 15.027044 5.125067c7.874478 6.000578 11.837317 16.189272 10.163095 26.229489l-55.12647 337.17923 233.582223 238.789208c6.983608 7.152566 9.482142 17.796936 6.481853 27.504356z"  horiz-adv-x="1024" />

    
    <glyph glyph-name="star1" unicode="&#58924;" d="M1022.7456 506.83392c-3.04128 9.70752-11.03872 16.78848-20.66432 18.24768l-322.83136 49.20832-144.3328 306.76992C530.58048 890.20416 521.70752 896 512 896c-9.74848 0-18.66752-5.79072-22.95808-14.93504L344.66816 574.28992 21.87776 525.0816C12.25728 523.6224 4.25984 516.54144 1.25952 506.83392c-3.00032-9.70752-0.50176-20.35712 6.45632-27.49952l233.58464-238.79168-55.12704-337.18272c-1.664-10.04032 2.24768-20.22912 10.1632-26.22976a24.5248 24.5248 0 0 1 26.92096-2.03776L512 34.2784l288.6656-159.19104a24.69888 24.69888 0 0 1 11.91936-3.08736c5.3248 0 10.5728 1.73056 15.03744 5.12512 7.87456 6.00064 11.83744 16.18944 10.1632 26.22976l-55.12192 337.18272 233.57952 238.79168c7.00416 7.15264 9.50272 17.79712 6.5024 27.50464z"  horiz-adv-x="1024" />

    
    <glyph glyph-name="turnover" unicode="&#58921;" d="M898.587034 96.38912c-170.41408 0-334.79168 105.45664-448.78848 291.41504-147.29216 240.22528-387.7888 191.04256-397.87008 188.78976-23.08608-4.8128-45.75232 9.45664-50.83648 32.4352-5.08416 22.9376 9.25184 45.66528 32.20992 50.83648 3.08224 0.64512 309.41696 65.87392 489.24672-227.47648 108.95872-177.75104 267.9552-270.05952 423.86944-247.16288 23.79264 3.53792 44.99968-12.70784 48.41984-36.0192 3.41504-23.31136-12.70784-44.9792-35.99872-48.39424a413.30688 413.30688 0 0 0-60.25216-4.42368zM110.885274 101.51424c-46.49984 0-76.62592 6.41536-77.57824 6.62528a42.6752 42.6752 0 0 0-32.25088 51.00032c5.16608 22.97344 27.9552 37.3504 50.87744 32.27136 10.50112-2.24768 250.66496-51.29216 397.87008 188.78976 127.41632 207.872 317.66528 315.03872 509.04064 286.99648 23.29088-3.41504 39.41376-25.10336 35.99872-48.41984-3.42016-23.2704-24.6272-39.49568-48.41984-35.99872-156.78976 22.91712-314.91072-69.45792-423.86944-247.16288-124.04736-202.35264-308.29568-234.10176-411.66848-234.10176zM857.836954 458.4448a42.51648 42.51648 0 0 0-30.16704 12.49792 42.67008 42.67008 0 0 0 0 60.35456l93.33248 93.25056-93.33248 93.29152c-16.67072 16.64512-16.67072 43.66848 0 60.33408a42.6496 42.6496 0 0 0 60.32896 0l123.49952-123.45856c8.00256-8.00256 12.49792-18.85184 12.49792-30.16704s-4.50048-22.1696-12.49792-30.18752l-123.49952-123.43808a42.58816 42.58816 0 0 0-30.16192-12.47744zM857.836954-22.67136a42.51648 42.51648 0 0 0-30.16704 12.49792c-16.67072 16.6656-16.67072 43.68384 0 60.32896l93.33248 93.312-93.33248 93.29152a42.64448 42.64448 0 0 0 0 60.33408 42.6496 42.6496 0 0 0 60.32896 0l123.49952-123.45344a42.67008 42.67008 0 0 0 0-60.3392l-123.49952-123.47392a42.50112 42.50112 0 0 0-30.16192-12.49792z"  horiz-adv-x="1024" />

    
    <glyph glyph-name="pregnantwoman" unicode="&#58912;" d="M312.756067-115.47168499999998a42.673918 42.673918 0 0 0-32.746536 69.978057c41.542432 49.810983 3.624851 95.83328-6.625081 106.666875-15.702568 13.997659-100.369464 96.893088-113.035963 267.634837-8.877813 119.46137 70.955948 215.560882 134.907946 272.56013-19.204543 9.814745-36.248511 22.854993-48.372306 39.166823-45.541031 61.392075 28.95785 133.725262 57.045326 160.973082C330.506574 827.322384 370.216101 878.838276 370.589849 879.3605c14.412367 18.666959 41.163563 22.143335 59.835642 7.787286 18.707918-14.350929 22.163814-41.143084 7.833365-59.830522-1.797066-2.293691-43.877081-56.89685-74.87775-87.037385-31.374417-30.437485-41.040687-46.293649-43.999958-53.22592 14.248532-13.122166 46.124694-23.750966 71.54473-22.604121 18.124255 0.399348 37.001128-11.627171 42.622719-30.28901a42.689277 42.689277 0 0 0-18.748876-48.874051c-1.797066-1.080288-179.742439-110.435081-169.369631-250.140323 10.828475-145.685222 81.702505-207.701919 84.748814-210.266962 40.206152-39.622489 91.204939-133.996613 15.415856-224.991639a42.638079 42.638079 0 0 0-32.838693-15.359538zM723.337009-127.96923000000004a42.412805 42.412805 0 0 0-26.587361 9.33348 42.658558 42.658558 0 0 0-6.712118 59.953398c104.296386 130.561197 116.706893 255.956469 35.879882 362.597744-3.747727 4.98161-6.169415 8.565503-7.208744 10.413767-54.367646 75.87612-58.867991 157.271434-15.118905 244.206422 54.746515 108.643135 46.539401 207.517604 46.447244 208.515974-2.119616 23.459135 15.211063 44.209871 38.670198 46.334608 23.167304 1.622991 44.209871-15.185464 46.339727-38.665079 0.450546-5.017449 10.33185-124.371303-55.207301-254.55875-42.796794-84.933128-8.212233-133.264475 6.579003-153.912815 3.117986-4.356989 5.370719-7.771926 6.671159-10.065618 106.364804-139.976594 93.155601-305.972246-36.376507-468.117773a42.627839 42.627839 0 0 0-33.376277-16.035358zM391.463462 0.917777000000001c-36.084676 0-59.584769 2.083777-63.081624 2.421687a42.658558 42.658558 0 0 0-38.414206 46.477964c2.211774 23.413056 23.372098 40.625979 46.457484 38.480763 2.954151-0.31743 296.454452-25.691388 449.199942 123.183499 16.869893 16.439826 43.958999 16.107036 60.327147-0.747498 16.460305-16.875013 16.127515-43.892441-0.747498-60.327147-135.035942-131.651724-348.200737-149.489268-453.741245-149.489268z"  horiz-adv-x="1024" />

    
    <glyph glyph-name="qualitycontrol" unicode="&#58913;" d="M494.71488 271.49824a42.5472 42.5472 0 0 0-30.17216 12.49792L311.54176 436.95616c-16.6656 16.64512-16.6656 43.66336 0 60.33408a42.6496 42.6496 0 0 0 60.33408 0l122.83392-122.79296 217.91744 217.90208a42.6496 42.6496 0 0 0 60.33408 0 42.6496 42.6496 0 0 0 0-60.33408l-248.08448-248.064a42.52672 42.52672 0 0 0-30.16192-12.50304zM798.04416 10.081279999999992H225.96096C101.376 10.081279999999992 0 112.22528 0 237.79327999999998v429.8752C0 793.21088 101.376 895.35488 225.96096 895.35488h572.07808C922.624 895.35488 1024 793.21088 1024 667.66848v-429.8752c0-125.568-101.37088-227.712-225.95584-227.712zM225.96096 810.02496c-77.54752 0-140.62592-63.85664-140.62592-142.35648v-429.8752c0-78.49984 63.0784-142.38208 140.62592-142.38208h572.07808c77.5424 0 140.62592 63.88224 140.62592 142.38208v429.8752c0 78.49984-63.08352 142.35648-140.62592 142.35648H225.96096zM710.91712-127.36000000000001H313.08288a42.65984 42.65984 0 0 0-42.66496 42.67008 42.65472 42.65472 0 0 0 42.66496 42.66496h397.83424a42.6496 42.6496 0 0 0 42.66496-42.66496 42.6496 42.6496 0 0 0-42.66496-42.67008z"  horiz-adv-x="1024" />

    
    <glyph glyph-name="schedulingsection" unicode="&#58914;" d="M366.377688 422.207809h-258.917105C48.212239 422.207809 0.04864 470.371408 0.04864 529.6197520000001V788.582937C0.04352 847.831281 48.212239 896 107.460583 896h258.917105c59.248344 0 107.417063-48.168719 107.417063-107.417063v-258.958065c0-59.248344-48.168719-107.417063-107.417063-107.417063z m-258.917105 388.457578a22.118289 22.118289 0 0 1-22.08245-22.08245v-258.958065a22.118289 22.118289 0 0 1 22.08245-22.08245h258.917105a22.123409 22.123409 0 0 1 22.08245 22.08245V788.582937a22.118289 22.118289 0 0 1-22.08245 22.08245h-258.917105zM366.377688-127.99487999999997h-258.917105C48.212239-127.99487999999997 0.04864-79.83128099999999 0.04864-20.582937000000015v258.958065c0 59.248344 48.163599 107.411943 107.411943 107.411943h258.917105c59.248344 0 107.411943-48.163599 107.411943-107.411943v-258.958065C473.794751-79.83128099999999 425.626032-127.99487999999997 366.377688-127.99487999999997z m-258.917105 388.457578a22.123409 22.123409 0 0 1-22.08245-22.08245v-258.958065a22.118289 22.118289 0 0 1 22.08245-22.08245h258.917105a22.118289 22.118289 0 0 1 22.08245 22.08245v258.958065a22.118289 22.118289 0 0 1-22.08245 22.08245h-258.917105zM916.539417-127.99487999999997h-258.911985c-59.248344 0-107.417063 48.163599-107.417063 107.411943v258.958065c0 59.248344 48.168719 107.411943 107.417063 107.411943h258.911985c59.248344 0 107.411943-48.163599 107.411943-107.411943v-258.958065c0.00512-59.248344-48.163599-107.411943-107.411943-107.411943z m-258.911985 388.457578a22.118289 22.118289 0 0 1-22.08245-22.08245v-258.958065a22.118289 22.118289 0 0 1 22.08245-22.08245h258.911985a22.118289 22.118289 0 0 1 22.08245 22.08245v258.958065a22.123409 22.123409 0 0 1-22.08245 22.08245h-258.911985zM738.579347 837.1202940000001h97.084955v-356.037899h-97.084955zM856.999235 459.747461h-139.749701V858.455228h139.749701v-398.707767z m-97.084955 42.664747h54.415088V815.785361h-54.415088v-313.373153zM608.956955 707.661742h356.04302v-97.079835h-356.04302zM986.329788 589.246974h-398.702646V728.996675h398.702646v-139.749701z m-356.037899 42.664746h313.373153V686.3319280000001h-313.373153V631.9117200000001z"  horiz-adv-x="1024" />

    
    <glyph glyph-name="newborn" unicode="&#58915;" d="M507.673838 409.258131c-134.203179 0-243.381174 109.183115-243.381174 243.381174C264.292664 786.816885 373.470659 896 507.673838 896c134.17758 0 243.335097-109.177995 243.335097-243.360695 0-134.203179-109.157516-243.381174-243.335097-243.381174z m0 401.411522c-87.142727 0-158.055947-70.892741-158.055947-158.030348 0-87.142727 70.91322-158.055947 158.055947-158.055947 87.122248 0 158.009869 70.91322 158.009869 158.055947 0 87.137607-70.892741 158.030348-158.009869 158.030348zM839.129528 240.414937a42.616536 42.616536 0 0 0-37.000205 21.374825c-46.620156 80.871072-124.035418 139.384334-212.463195 160.549249a42.683092 42.683092 0 0 0-31.563064 51.432692c5.498578 22.91586 28.665303 36.872212 51.437811 31.563064 111.138847-26.622536 208.259906-99.870347 266.501823-200.964307 11.795831-20.417437 4.751099-46.497283-15.666339-58.272635a42.601177 42.601177 0 0 0-21.246831-5.682888zM184.875592 235.29009900000005a42.468064 42.468064 0 0 0-20.688782 5.375704c-20.601747 11.45793-28.020219 37.435381-16.562289 58.016649C204.765698 401.424962 301.615411 476.377639 413.358385 504.3569c22.787867 5.606092 46.016029-8.165951 51.744994-31.040852a42.667733 42.667733 0 0 0-31.040852-51.744994c-88.934629-22.250296-166.155341-82.161241-211.864188-164.348081a42.631895 42.631895 0 0 0-37.322747-21.932874zM616.688002-127.94368299999996a42.473184 42.473184 0 0 0-26.668613 9.374204c-18.374669 14.72943-21.328747 41.582353-6.599317 59.977502 76.71898 95.743854 80.220868 161.173855 70.682832 198.281574-42.268395-31.604022-88.284424-48.104874-137.367164-49.180015-62.639755-1.377204-116.535031 23.371515-152.408898 45.954592-21.584733-93.219833 74.102804-186.36287 78.787347-190.863102 16.997465-16.270465 17.64255-43.246261 1.392563-60.284684-16.18343-17.038423-43.102909-17.750064-60.202769-1.541036-64.042558 60.786417-161.511757 210.568899-72.060036 342.56036a42.601177 42.601177 0 0 0 30.958937 18.497542c12.707141 1.172416 25.040543-3.041113 34.081965-11.831669 0.522211-0.481254 61.846198-60.228367 138.155602-57.166776 42.104564 1.08538 82.120283 21.441381 118.946418 60.479234a42.565339 42.565339 0 0 0 29.832599 13.372704c9.706986 0.895951 22.250296-3.855148 30.498163-11.642239 5.498578-5.165796 132.119453-129.329207-44.725861-349.99931a42.575578 42.575578 0 0 0-33.303768-15.988881z"  horiz-adv-x="1024" />

    
    <glyph glyph-name="infusion" unicode="&#58916;" d="M512-128a31.96416 31.96416 0 0 0-31.95904 31.95904v114.95424a31.96928 31.96928 0 0 0 31.95904 32 31.96928 31.96928 0 0 0 31.95392-32v-114.95424A31.95392 31.95392 0 0 0 512-128zM728.20736 854.83008h-112.12288C606.208 878.99648 582.54336 896 554.88 896H469.08416c-27.66336 0-51.328-16.9984-61.16352-41.1648h-112.128c-45.50144 0-82.37568-36.87424-82.37568-82.37568v-526.83776c0-120.28928 86.0416-220.53888 199.9616-242.53952 4.79232-28.83584 29.78816-50.83648 60.00128-50.83648h77.25056c30.20288 0 55.20384 22.00064 60.00128 50.83648 113.91488 22.00064 199.95648 122.25024 199.95648 242.53952V772.45952c-0.00512 45.49632-36.87936 82.37056-82.3808 82.37056zM293.29408 710.99904h114.95936c13.25056 0 24.00256-10.752 24.00256-24.00256s-10.752-23.95648-24.00256-23.95648H293.29408c-13.2096 0-23.9616 10.70592-23.9616 23.95648s10.752 24.00256 23.9616 24.00256z m0-89.25184h114.95936c13.25056 0 24.00256-10.752 24.00256-24.00256s-10.752-24.00256-24.00256-24.00256H293.29408c-13.2096 0-23.9616 10.752-23.9616 24.00256s10.752 24.00256 23.9616 24.00256z m468.37248-363.41248c0-114.08384-92.49792-206.62272-206.62272-206.62272H468.95616c-114.1248 0-206.62272 92.53888-206.62272 206.62272V494.33088h499.33312v-235.99616z"  horiz-adv-x="1024" />

    
    <glyph glyph-name="chestpain" unicode="&#58917;" d="M588.34432 71.168c46.08 33.792 94.208 69.12 139.264 105.984 18.432 14.848 45.056 12.288 59.904-6.144 14.848-18.432 12.288-45.056-6.144-59.904-46.592-37.888-95.232-73.728-142.336-108.544l-4.096-3.072c-20.992-15.36-41.984-30.72-62.976-46.592-18.432-13.824-38.912-20.992-59.904-20.992-18.944 0-37.888 6.144-54.784 17.408-105.984 71.168-228.352 159.232-332.288 275.456C55.35232 302.592 16.95232 376.832 4.15232 458.24c-27.648 175.104 85.504 337.92 258.048 370.688 91.648 17.408 177.152-1.024 249.856-52.736 18.944 13.312 38.912 24.576 60.928 33.792 39.936 16.896 82.432 25.6 125.952 25.6 155.648 0 289.792-110.592 319.488-262.656 16.384-84.48 0.512-168.96-47.104-250.88-1.024-2.048-2.048-4.096-3.072-5.632l-3.072-4.608c-7.168-11.264-18.944-17.408-31.232-18.944-22.528-7.68-61.44-13.312-133.12-13.312h-28.672l-18.944-56.832c-6.144-18.944-25.088-30.72-44.544-29.184-19.968 2.048-35.84 17.408-38.4 37.376l-3.072 23.04c-5.12-14.336-17.92-24.576-33.792-27.136-18.432-2.56-35.84 6.144-44.032 22.528l-17.92 34.304c-13.824 0-29.184 0-38.4 0.512-25.6 2.048-38.4 20.992-45.056 30.208-5.632 8.192-5.632 8.192-11.776 9.216-6.144-0.512-16.896-12.288-19.968-17.92-7.168-13.824-22.016-23.04-37.888-23.04H252.98432c-23.552 0-42.496 18.944-42.496 42.496 0 23.552 18.944 42.496 42.496 42.496h142.848c18.944 22.016 49.152 44.032 88.064 40.448 39.936-3.584 59.392-25.088 70.144-39.424 12.288 0 29.696 0 41.472 0.512 2.048 0 4.096 0 6.144-0.512l31.232 171.008c3.584 20.48 21.504 36.352 43.008 34.816 20.992-0.512 38.4-16.384 40.96-37.376l21.504-172.032h61.44c39.936 0 82.432 3.072 100.352 7.168 33.792 61.44 45.056 123.392 33.28 184.832-21.504 112.128-120.32 193.536-235.52 193.536-31.744 0-62.976-6.144-92.672-18.944-24.064-10.24-45.568-23.552-66.048-41.472-15.872-14.336-40.448-14.336-56.32 0-58.368 51.2-128 70.144-205.824 55.296C150.07232 721.408 66.61632 601.088 87.09632 471.552c10.24-64.512 41.984-124.928 100.352-189.952 97.792-109.568 214.528-193.536 316.416-261.632 3.584-2.56 5.632-2.56 7.168-2.56 3.584 0 6.656 2.56 8.704 3.584 20.992 15.872 42.496 31.232 63.488 47.104m-43.008 301.056z"  horiz-adv-x="1024" />

    
    <glyph glyph-name="setup" unicode="&#58918;" d="M407.54176 383.95904c0-58.37312 47.37536-105.74848 105.74848-105.74848 58.46016 0 105.78944 47.37536 105.78944 105.74848 0 58.41408-47.32928 105.78944-105.78944 105.78944-58.37312 0-105.74848-47.37536-105.74848-105.78944zM1006.33088 483.24608l-125.25056 17.37728c-6.8096 21.42208-15.55968 41.93792-25.8304 61.56288l76.49792 101.1456a20.51072 20.51072 0 0 1-1.87392 26.87488l-111.67232 111.6672c-7.20384 7.24992-18.66752 7.9616-26.8288 1.87392l-101.72928-76.93312c-19.46112 10.0608-39.71072 18.72896-60.91264 25.37472l-17.52576 126.1056A20.46464 20.46464 0 0 1 590.95552 896H433.04448a20.46464 20.46464 0 0 1-20.2496-17.70496L395.1104 751.19104a386.9184 386.9184 0 0 1-59.72992-25.12384L232.6272 803.74784c-8.17152 6.08256-19.62496 5.33504-26.83392-1.91488l-111.6672-111.62624a20.59776 20.59776 0 0 1-1.87392-26.87488l78.1056-103.24992c-9.728-18.87744-18.1248-38.53824-24.66816-59.06432L17.66912 483.24608A20.50048 20.50048 0 0 1 0 462.95552v-157.91616a20.51072 20.51072 0 0 1 17.664-20.29568l128-17.77152c6.53824-20.52096 14.94016-40.18688 24.68864-59.0848l-78.1056-103.22432a20.608 20.608 0 0 1 1.87392-26.87488l111.6672-111.67232a20.48 20.48 0 0 1 14.45888-6.00064c4.33152 0 8.704 1.41824 12.37504 4.12672l102.74816 77.69088a381.47584 381.47584 0 0 1 59.72992-25.12384l17.68448-127.14496a20.43392 20.43392 0 0 1 20.2496-17.66912h157.91616a20.43392 20.43392 0 0 1 20.2496 17.66912l17.56672 126.14656c21.16608 6.64576 41.41568 15.3088 60.8768 25.35424l101.6832-76.91776a20.58752 20.58752 0 0 1 26.87488 1.87392l111.67232 111.67232a20.54656 20.54656 0 0 1 1.87392 26.8288l-76.49792 101.1456c10.27072 19.65056 19.04128 40.17152 25.856 61.60384l125.22496 17.37728a20.51072 20.51072 0 0 1 17.66912 20.29568V462.95552a20.50048 20.50048 0 0 1-17.66912 20.29056z m-270.95552-99.28704c0-122.37312-99.584-221.99808-222.08512-221.99808-122.41408 0-222.03904 99.62496-222.03904 221.99808 0 122.41408 99.62496 222.08512 222.03904 222.08512 122.50112 0 222.08512-99.67104 222.08512-222.08512z"  horiz-adv-x="1024" />

    
    <glyph glyph-name="trauma" unicode="&#58919;" d="M507.417623 474.958905c-116.126139 0-210.579427 94.458408-210.579427 210.558947C296.838196 801.582552 391.291484 896 507.417623 896c116.08518 0 210.497508-94.412328 210.497507-210.477028 0-116.105659-94.412328-210.564067-210.497507-210.564067z m0 335.706482c-69.078695 0-125.249934-56.145639-125.249934-125.142415 0-69.042855 56.171239-125.229454 125.249934-125.229453 69.001895 0 125.168014 56.186599 125.168014 125.229453 0 68.996775-56.166119 125.142414-125.168014 125.142415zM813.586972-127.99488a42.654507 42.654507 0 0 0-42.669867 42.669867v462.200569c0 24.918915-20.290459 45.188894-45.204254 45.188894H298.251309c-24.913795 0-45.163294-20.269979-45.163294-45.188894v-202.622987c0-24.913795 20.249499-45.188894 45.163294-45.188894h169.082034a42.649387 42.649387 0 0 0 42.664747-42.659627 42.649387 42.649387 0 0 0-42.664747-42.669867H298.251309c-71.96124 0-130.497908 58.541787-130.497908 130.518388v202.622987c0 71.98172 58.541787 130.523507 130.497908 130.523507h427.456422c72.0022 0 130.538867-58.541787 130.538868-130.523507v-462.200569a42.649387 42.649387 0 0 0-42.659627-42.669867zM680.539317-127.99488a42.649387 42.649387 0 0 0-42.664746 42.669867v284.02034a42.654507 42.654507 0 0 0 42.664746 42.664746 42.659627 42.659627 0 0 0 42.669867-42.664746v-284.02034a42.649387 42.649387 0 0 0-42.669867-42.669867zM333.041535-127.99488a42.649387 42.649387 0 0 0-42.664747 42.669867v171.682981a42.649387 42.649387 0 0 0 42.664747 42.664747 42.649387 42.649387 0 0 0 42.669866-42.664747v-171.682981A42.649387 42.649387 0 0 0 333.041535-127.99488zM489.292914 43.734181H373.294774a42.649387 42.649387 0 0 0-42.664747 42.669867 42.649387 42.649387 0 0 0 42.664747 42.659627h115.99814c97.586712 0 176.961675 79.359603 176.961675 176.900235V462.00025a42.654507 42.654507 0 0 0 42.664746 42.664747 42.659627 42.659627 0 0 0 42.669867-42.664747v-156.04146c-0.00512-144.582957-117.672372-262.224609-262.296288-262.224609zM422.129089 46.294169a42.418988 42.418988 0 0 0-21.212054 5.667811c-20.413338 11.729861-27.499383 37.790531-15.749041 58.229469l215.668682 375.770281a42.618667 42.618667 0 0 0 58.249949 15.769521c20.413338-11.729861 27.499383-37.790531 15.749041-58.229469l-215.668682-375.770281a42.598187 42.598187 0 0 0-37.037895-21.437332zM325.254054 43.734181a42.552107 42.552107 0 0 0-21.084055 5.580772C283.715701 60.983375 276.542617 87.044045 288.216159 107.523942l95.579682 167.832761c11.668422 20.433818 37.708611 27.586422 58.208989 15.95384 20.459418-11.658182 27.627382-37.723971 15.95896-58.203869l-95.584802-167.83276a42.700586 42.700586 0 0 0-37.124934-21.539733zM241.337673 65.693752a42.454828 42.454828 0 0 0-21.171094 5.647331 42.664747 42.664747 0 0 0-15.830961 58.224349l81.376873 142.04345a42.731306 42.731306 0 0 0 58.249949 15.815601c20.454298-11.709381 27.540342-37.795651 15.830961-58.229469l-81.376873-142.03833a42.715946 42.715946 0 0 0-37.078855-21.462932zM515.128304 210.271589H210.418148a42.659627 42.659627 0 0 0-42.664747 42.669866 42.654507 42.654507 0 0 0 42.664747 42.664747h304.710156a42.649387 42.649387 0 0 0 42.664747-42.664747 42.649387 42.649387 0 0 0-42.664747-42.669866z"  horiz-adv-x="1024" />

    
    <glyph glyph-name="stroke" unicode="&#58920;" d="M968.48384 581.85216c-19.37408 130.95936-90.08128 223.60576-210.16576 275.3536C696.8576 883.66592 629.56544 896 546.56512 896c-8.6272 0-17.24928-0.12288-25.87648-0.37376C386.1504 891.87328 278.44096 837.72928 200.6528 734.68416c-55.54688-73.58464-76.46208-145.81248-63.91808-220.8768 4.16768-24.64256 0.37376-41.37472-13.57824-59.68896-9.79456-12.95872-18.79552-26.624-27.20768-40.2688-12.62592-20.10624-25.12384-40.37632-36.66432-61.4144-15.21152-28.14976-9.99936-58.752 12.25216-79.79008l-0.04608-0.54272 62.208-49.77152v-16.50176c-0.04096-26.83392-0.08704-53.2736 0.08704-79.70816 0.50176-73.74848 39.3728-112.72704 114.58048-112.72704h0.04608c12.32896 0.11776 24.66304 0.89088 37.00224 1.65888 11.07968 0.71168 22.16448 1.43872 33.37728 1.52576 2.41664 0 3.53792-0.50176 4.20352-0.20992 0.3328-0.5376 0.96256-1.83296 1.5872-4.2496 1.4592-5.93408 1.87392-12.12416 2.4576-18.29376 0.91648-9.51808 1.91488-19.04128 4.03968-28.43136 5.12512-22.44096 14.45888-39.43936 27.54048-50.36032 15.49824-13.12256 34.1248-18.07872 48.54272-21.9392a610.51904 610.51904 0 0 1 159.12448-21.09952c67.7888 0 138.54208 11.33056 210.20672 33.6896 29.99808 9.32864 53.7088 16.71168 65.4592 41.74848s2.24768 48.08192-9.83552 77.27104c-18.20672 44.07808-23.20384 83.37408-15.2064 120.14592 5.5808 25.83552 17.95584 63.45728 47.0016 98.49856l29.29152 40.83712c66.48832 85.06368 91.86304 185.18528 75.27936 297.66656z m-143.58016-246.49728l-28.46208-39.81312c-38.21056-45.89056-55.33696-97.4336-62.96064-132.5824-11.79136-54.30784-5.32992-110.208 19.79392-170.85952 0.50176-1.19808 0.9984-2.46784 1.54112-3.76832-1.29024-0.4096-2.53952-0.80896-3.712-1.16224-113.03936-35.27168-218.752-39.5008-322.74944-11.40224-3.74784 0.9984-9.45664 2.51904-12.7488 3.69152a50.44224 50.44224 0 0 0-1.3312 4.86912c-1.29536 5.72928-1.75104 11.62752-2.29376 17.52064-0.9984 10.35776-2.1248 20.68992-4.62336 30.85824-10.8288 43.33056-43.9552 69.21216-89.28768 69.21216-12.70784-0.08704-25.41568-0.88064-38.08256-1.6896-10.8288-0.6912-21.62688-1.39264-33.70496-1.50016-24.70912 0-26.99776 0.768-27.17184 27.96032-0.16384 26.18368-0.12288 52.39296-0.08192 79.0016l0.04096 57.66656-72.0384 57.6256a55.8336 55.8336 0 0 1-4.79744 4.92032c8.37632 14.39232 17.17248 28.60032 26.12736 42.84928 7.168 11.58656 14.6688 23.04 22.79424 33.81248 28.37504 37.35552 37.83168 77.18912 29.75232 125.35296-8.58624 51.37408 6.62528 100.73088 47.83104 155.35616 62.29504 82.4576 145.4592 124.02176 254.336 127.06304 7.8336 0.20992 15.6672 0.3328 23.5008 0.3328 70.99904 0 127.58528-10.10688 178.00192-31.83104 92.37504-39.81312 144.5376-108.33408 159.49824-209.43872 13.20448-89.67168-5.79584-165.77536-59.17184-234.04544zM622.6944 788.89472c-25.9584 4.83328-51.95776 7.29088-77.29152 7.29088-95.87712 0-177.17248-35.43552-228.87424-99.7888-48.62464-60.48256-39.71072-108.25216-30.04416-131.3536 13.37344-32.02048 43.83744-54.1696 79.42144-57.76896 67.37408-6.87616 122.57792-35.9168 124.83072-37.06368 22.00064-10.54208 34.08384-24.02304 49.41824-41.08288 25.1648-28.04224 56.4992-62.95552 131.20512-74.64448 8.45824-1.31072 16.54272-1.92 24.4224-1.92 44.00128 0 82.7904 18.97984 112.08192 54.87616 35.92192 43.93984 53.54496 111.14496 42.87488 163.43552-22.33856 109.70624-152.04864 203.89376-228.0448 218.01984z m119.08096-327.48032c-15.49824-19.00032-34.17088-26.16832-57.25184-22.62528-44.672 6.97856-59.0848 23.04-80.87552 47.3344-17.24928 19.23072-38.74816 43.1872-74.29632 60.12416-2.7904 1.52064-70.00064 37.2736-154.78784 45.89568-2.21184 0.22528-7.45984 1.2288-9.37472 5.8112-3.1232 7.4752 1.20832 24.2688 17.83296 44.95872 45.12256 56.14592 113.2032 67.93728 162.37568 67.93728 20.08064 0 40.832-1.95584 61.66528-5.83168 44.78976-8.35584 145.50016-79.5648 160.08704-151.18848 4.79232-23.62368-3.54304-65.68448-25.37472-92.416z"  horiz-adv-x="1024" />

    
    <glyph glyph-name="handover" unicode="&#58909;" d="M304.79872 787.29216c-118.75328-2.56-194.5856-51.74784-259.92192-144.73216-69.6832-99.1232-37.41696-233.31328-37.41696-233.31328s31.7696 100.06528 88.81664 147.74784c50.53952 42.22976 99.60448 78.11072 208.52224 82.97984v-54.68672l141.69088 126.94016-141.69088 129.024v-53.95968zM719.19616-19.25631999999996c118.75328 2.56512 194.5856 51.712 259.96288 144.6912 69.64224 99.1232 37.37088 233.31328 37.37088 233.31328s-31.7696-100.06528-88.81152-147.74784c-50.51904-42.20928-99.6096-78.08512-208.52736-82.95936v54.66624l-141.66528-126.93504 141.66528-129.024v53.99552zM794.82368 591.62624h-88.64256c-72.77056 0-131.712-58.96192-131.712-131.712v-110.96064c54.29248-22.21056 113.75616-34.49856 176.06656-34.49856 62.26944 0 121.728 12.288 176.02048 34.49856V459.91936c-0.00512 72.75008-58.96192 131.70688-131.73248 131.70688zM863.34464 728.41728c0-62.336-50.49856-112.87552-112.80896-112.87552-62.37696 0-112.87552 50.53952-112.87552 112.87552s50.49856 112.83456 112.87552 112.83456c62.30528 0 112.80896-50.49856 112.80896-112.83456zM333.27616 203.91423999999995H244.6336c-72.77056 0-131.73248-58.9824-131.73248-131.73248v-110.94016c54.30784-22.23104 113.75104-34.49856 176.06656-34.49856 62.28992 0 121.74848 12.26752 176.02048 34.49856v110.94016c0 72.75008-58.96192 131.73248-131.712 131.73248zM401.80224 340.68992000000003c0-62.31552-50.47808-112.88064-112.83456-112.88064-62.37696 0-112.88064 50.56512-112.88064 112.88064 0 62.35136 50.50368 112.85504 112.88064 112.85504 62.35648 0 112.83456-50.5088 112.83456-112.85504z"  horiz-adv-x="1024" />

    
    <glyph glyph-name="watch" unicode="&#58906;" d="M512 725.91872C238.36672 725.91872 2.99008 452.13184 0 382.8736c3.08224-83.46112 237.0816-340.79744 512-340.79744 281.99936 0 512 274.90816 512 341.90848 0 63.0272-242.60608 341.93408-512 341.93408z m0-556.29312c-118.20544 0-214.42048 96.15872-214.42048 214.36416 0 118.21056 96.21504 214.38464 214.42048 214.38464s214.41536-96.17408 214.41536-214.38464c0-118.20544-96.20992-214.36416-214.41536-214.36416zM610.1248 384.01024c0-54.30272-43.91936-98.13504-98.1248-98.13504s-98.1248 43.83232-98.1248 98.13504c0 54.28736 43.91936 98.11456 98.1248 98.11456s98.1248-43.83232 98.1248-98.11456z"  horiz-adv-x="1024" />

    
    <glyph glyph-name="rescue" unicode="&#58907;" d="M514.903 613.693a42.67 42.67 0 0 0-42.665 42.665V809.887a42.665 42.665 0 0 0 85.33 0v-153.523a42.65 42.65 0 0 0-42.665-42.67zM981.335 293.52H827.827a42.67 42.67 0 0 0 0 85.34h153.508a42.67 42.67 0 0 0 0-85.34z m-785.172 0H42.665A42.66 42.66 0 0 0 0 336.19000000000005a42.66 42.66 0 0 0 42.665 42.67h153.492a42.66 42.66 0 0 0 42.665-42.67 42.655 42.655 0 0 0-42.66-42.67z m536.079 221.758a42.68 42.68 0 0 0-30.177 72.863l98.964 98.872c16.686 16.635 43.669 16.65 60.334-0.016a42.65 42.65 0 0 0 0-60.364l-98.97-98.873a42.522 42.522 0 0 0-30.151-12.482zM269.778 515.277a42.583 42.583 0 0 0-30.167 12.498l-98.883 98.882a42.66 42.66 0 0 0 0 60.34 42.665 42.665 0 0 0 60.345 0l98.882-98.883a42.66 42.66 0 0 0 0-60.34 42.537 42.537 0 0 0-30.177-12.497zM881.649-56.44799999999998a28.083 28.083 0 0 0-28.078-28.099H170.399a28.119 28.119 0 0 0-28.078 28.099V-0.2300000000000182a28.119 28.119 0 0 0 28.078 28.098h683.187a28.078 28.078 0 0 0 28.063-28.098v-56.218zM512 548.0899999999999c-133.222 0-241.172-108-241.172-241.213v-243.46h482.334v243.46c0 133.218-108.001 241.214-241.162 241.214z m26.542-66.933c-43.955-14.28-81.746-50.15-112.333-106.624-34.155-63.257-19.789-245.227-19.62-247.06 0.251-2.391-0.614-4.818-2.237-6.6a8.724 8.724 0 0 0-6.333-2.81H330.69a8.728 8.728 0 0 0-6.211 2.6c-2.714 2.77-2.714 2.77-2.38 31.32v3.327c0.091 16.323-0.41 32.942-0.953 49.73-2.294 72.75-4.577 147.979 37.489 211.165 33.51 50.324 96.302 82.8 160 82.8 2.554 0 5.002-0.332 7.633-0.706 2.11-0.287 4.414-0.65 6.365-0.65 4.541 1.495 9.702-1.08 11.202-5.586 1.418-4.537-0.758-9.431-5.294-10.906z"  horiz-adv-x="1024" />

    
    <glyph glyph-name="triage" unicode="&#58908;" d="M384 862.4639999999999h256v-256h-256zM0 163.32799999999997h256v-256h-256zM384 163.32799999999997h256v-256h-256zM768 163.32799999999997h256v-256h-256zM929.3824 100.096h-64V412.7232H152.9344v-312.6272h-64V476.7232h840.448zM480 797.8496h64.0512v-739.3792H480z"  horiz-adv-x="1024" />

    
    <glyph glyph-name="bed" unicode="&#58902;" d="M212 334h675c6.8 0 12.7-2.5 17.6-7.4s7.4-10.9 7.4-17.6v-175H812V234H212v-100H112V609c0 6.8 2.5 12.7 7.4 17.6 5 5 10.8 7.4 17.6 7.4h50c6.8 0 12.7-2.5 17.6-7.4 5-5 7.4-10.9 7.4-17.6v-275z m195.7 54.3c19.5 19.5 29.3 43.1 29.3 70.8s-9.7 51.1-29.3 70.8c-19.6 19.6-43.1 29.3-70.8 29.3s-51.1-9.7-70.8-29.3c-19.6-19.6-29.3-43.1-29.3-70.8s9.7-51.1 29.3-70.8c19.5-19.5 43.1-29.3 70.8-29.3s51.3 9.7 70.8 29.3zM912 359v25c0 41.4-14.6 76.8-44 106-29.3 29.3-64.6 44-106 44H487c-6.8 0-12.7-2.5-17.6-7.4-5-5-7.4-10.9-7.4-17.6v-150h450z"  horiz-adv-x="1024" />

    
    <glyph glyph-name="verify" unicode="&#58893;" d="M873.3696-121.60512000000006H2.2016V884.33664h871.168v-219.44832h-149.11488V735.22176H151.31648v-707.712h572.93824v85.51424h149.11488zM628.224 85.53984000000003l-245.2992 265.68192 109.50656 101.13536 135.79264-147.00544 288.47104 312.50432L1026.2016 516.72064z"  horiz-adv-x="1026" />

    
    <glyph glyph-name="add" unicode="&#58894;" d="M512 896c-282.77248 0-512-229.22752-512-512s229.22752-512 512-512 512 229.22752 512 512-229.22752 512-512 512z m0-896c-211.74784 0-384 172.25216-384 384s172.25216 384 384 384c211.74272 0 384-172.25216 384-384s-172.25728-384-384-384zM563.2 646.4h-102.4v-211.2h-211.2v-102.4h211.2v-211.2h102.4v211.2h211.2v102.4h-211.2z"  horiz-adv-x="1024" />

    
    <glyph glyph-name="delete" unicode="&#58895;" d="M652.389698 796.641777v99.358223h-280.851076v-99.358223h-247.92964v-166.460608h776.776916v166.460608zM123.608982-17.029674999999997c0-61.327053 49.786631-110.965205 111.001045-110.965205h554.779946c61.291214 0 111.001045 49.638152 111.001045 110.965205V563.145344H123.608982v-580.175019z m546.710866 478.461608h110.919126v-469.220054h-110.919126v469.220054z m-213.92789 0h110.995925v-469.220054h-110.995925v469.220054z m-213.712851 0h110.929365v-469.220054h-110.929365v469.220054z"  horiz-adv-x="1024" />

    
    <glyph glyph-name="unfold" unicode="&#58896;" d="M30.509255-127.79587100000003a27.237663 27.237663 0 0 0-22.54787 7.77707 27.135266 27.135266 0 0 0-7.751471 22.501791l46.21699 381.747114a27.329821 27.329821 0 0 0 18.149909 22.506911 27.391259 27.391259 0 0 0 28.154119-6.507344l109.969505-110.025824 197.698332 197.693212 115.519436-115.473356-197.718812-197.698332 110.025824-109.995105a27.171105 27.171105 0 0 0 6.507344-28.128519 27.375899 27.375899 0 0 0-22.506912-18.175508l-381.716394-46.22211zM1023.767507 865.51358a27.094307 27.094307 0 0 1-7.75659 22.501791 27.375899 27.375899 0 0 1-22.517151 7.797549l-381.752233-46.298907a27.181345 27.181345 0 0 1-22.476192-18.12431 27.135266 27.135266 0 0 1 6.502224-28.123399l109.974625-110.000225-197.672733-197.698332 115.504075-115.473357 197.667614 197.672733 110.025823-110.000224a27.242783 27.242783 0 0 1 28.1234-6.502224 27.165985 27.165985 0 0 1 18.124309 22.476192l46.252829 381.772713z"  horiz-adv-x="1024" />

    
    <glyph glyph-name="disable" unicode="&#58897;" d="M874.00064 746.0352c-99.99872 99.99872-230.99904 149.9648-361.99936 149.9648-131.00032 0-262.00064-49.96608-361.99936-149.9648-200.00256-199.96672-200.00256-524.1088 0-724.0704 99.99872-100.00384 230.99904-149.9648 361.99936-149.9648 130.9952 0 261.99552 49.96096 361.99936 149.9648 200.00256 199.9616 200.00256 524.10368 0 724.0704zM253.43104 125.42976c-69.0688 69.0688-107.15136 160.89088-107.15136 258.57024 0 72.82176 21.28384 142.32064 60.65152 201.64096l506.71104-506.71616c-59.28448-39.39328-128.86016-60.6464-201.64096-60.6464-97.6384 0-189.50144 38.0416-258.57024 107.15136z m563.64032 56.92928l-506.70592 506.71104c59.27936 39.39328 128.85504 60.64128 201.64096 60.64128 97.6384 0 189.49632-38.03648 258.56512-107.14112 69.07392-69.0688 107.14624-160.89088 107.14624-258.57024 0-72.81664-21.29408-142.32064-60.6464-201.64096z"  horiz-adv-x="1024" />

    
    <glyph glyph-name="one-clickreview" unicode="&#58898;" d="M619.578116 569.522127c75.425509-26.392784 150.502869-53.891455 223.214862-87.103869 54.352241-24.790274 89.279801-53.963133 81.072695-119.067041a50102.311039 50102.311039 0 0 0-53.927293-412.244541c-7.853837-58.714346-31.645742-78.569092-90.349848-78.604932-114.213431-0.107517-228.355184 0.747497-342.496937-0.506864-34.497494-0.394228-61.49954 10.142407-81.927709 37.431164-80.719426 108.212976-162.14027 215.995886-241.636053 325.171392-24.498443 33.714158-16.782841 72.927027 13.214311 97.036361 29.997153 24.073496 68.145094 21.749088 97.42547-8.176387 39.786291-40.641304 78.205583-82.572809 124.995818-132.173836v58.750185c0 187.570524-0.138236 375.166647 0.076797 562.737171 0 46.856792 16.711164 72.251207 51.208658 80.504393 51.213777 12.174984 90.92839-17.822169 91.57349-71.109483 0.936931-78.031509 0.291831-141.891296 0.291831-219.922805"  horiz-adv-x="1024" />

    
    <glyph glyph-name="refresh" unicode="&#58899;" d="M846.500147 347.44831999999997c-40.42752 0-73.1392 32.74752-73.1392 73.14432 0 144.13824-117.21728 261.42208-261.3504 261.42208-69.64736 0-135.424-27.2128-185.13408-76.64128-28.71296-28.42624-74.9312-28.28288-103.5008 0.3584-28.42624 28.67712-28.28288 74.96192 0.35328 103.424 77.42464 76.81536 179.78368 119.13728 288.2816 119.13728 224.77824 0 407.6288-182.8864 407.6288-407.70048 0-40.40192-32.71168-73.14432-73.1392-73.14432zM512.005427-60.28800000000001c-224.77824 0-407.6288 182.8864-407.6288 407.70048 0 40.39168 32.7168 73.1392 73.1392 73.1392s73.1392-32.74752 73.1392-73.1392c0-144.13824 117.21216-261.42208 261.3504-261.42208 69.64224 0 135.42912 27.20768 185.14432 76.64128 28.64128 28.49792 74.84928 28.35968 103.49568-0.3584 28.43136-28.68224 28.27776-74.96192-0.35328-103.424-77.42976-76.8256-179.7888-119.13728-288.28672-119.13728zM846.423347 347.44831999999997c-14.92992 0-29.93152 4.53632-42.9312 13.96736l-143.49312 104.28416c-32.64 23.75168-39.92576 69.49888-16.13312 102.17472 23.71584 32.60928 69.4272 39.89504 102.13888 16.1792l143.488-104.28416c32.64-23.74656 39.92576-69.49888 16.13824-102.1696-14.27456-19.69152-36.56704-30.15168-59.20768-30.15168zM846.423347 347.44831999999997a72.6528 72.6528 0 0 0-42.9312 13.99296c-32.71168 23.7568-39.92576 69.46304-16.13824 102.144l104.36096 143.53408c23.63392 32.71168 69.4272 40.00256 102.13376 16.14336 32.7168-23.75168 39.93088-69.46304 16.13824-102.13888l-104.35584-143.52896c-14.27456-19.71712-36.56704-30.14656-59.20768-30.14656zM320.942387 169.98400000000004c-14.92992 0-29.9264 4.53632-42.92608 13.96736l-143.50336 104.27904c-32.64 23.7568-39.92576 69.49888-16.13312 102.18496 23.63392 32.64 69.4272 39.92576 102.13376 16.1792l143.49312-104.28416c32.64-23.7568 39.93088-69.49888 16.14336-102.17984-14.27968-19.68128-36.56704-30.14656-59.20768-30.14656zM73.088307 130.73407999999995c-14.9248 0-29.9264 4.53632-42.92608 13.99808-32.7168 23.75168-39.93088 69.46304-16.14336 102.13376l104.36096 143.5392c23.63392 32.71168 69.4272 39.99744 102.13376 16.14336 32.72192-23.75168 39.93088-69.45792 16.13824-102.13888l-104.3456-143.52896c-14.2848-19.71712-36.57216-30.14656-59.21792-30.14656z"  horiz-adv-x="1024" />

    
    <glyph glyph-name="refresh1" unicode="&#58900;" d="M508.928-0.5119999999999436c-24.576 0-49.152 2.56-74.24 7.168-100.864 19.968-187.904 77.824-244.736 163.328C133.12 254.976 112.64 357.88800000000003 132.096 458.24l111.616-22.016c-13.824-71.168 0.512-143.36 40.96-203.264s101.376-100.864 172.544-114.688c94.208-18.944 192.512 14.848 256.512 87.552l85.504-74.752c-73.728-84.48-180.224-131.584-290.304-131.584zM886.784 309.76l-111.616 22.016c28.672 146.432-66.56 289.28-213.504 317.952-88.576 17.408-179.712-10.24-244.224-74.24L237.568 655.8720000000001c91.136 90.624 220.16 130.048 346.112 105.472 208.384-40.96 344.064-243.712 303.104-451.584zM0 426.496l181.76 199.168L363.52 426.496zM660.48 376.32000000000005l181.76-199.68 181.76 199.68z"  horiz-adv-x="1024" />

    
    <glyph glyph-name="revoke" unicode="&#58901;" d="M898.09408 407.18848c-96.75776 129.70496-244.05504 212.3264-438.04672 245.85216v186.98752a34.08896 34.08896 0 0 1-20.8896 31.44192 34.52928 34.52928 0 0 1-37.0688-6.99904l-391.78752-381.952a34.23232 34.23232 0 0 1-10.30144-24.43776c0-9.22624 3.73248-18.01728 10.30144-24.44288l391.78752-381.80352c9.9072-9.69728 24.43264-12.30848 37.10464-6.99904a34.11456 34.11456 0 0 1 20.85376 31.44704v214.2976c1.2544 0 2.5088 0.03584 3.7632 0.03584 98.99008 0 294.5536-49.38752 492.56448-380.07808a34.11456 34.11456 0 0 1 29.2864-16.61952c2.2272 0 4.44928 0.21504 6.67648 0.68096a34.07872 34.07872 0 0 1 27.06432 28.4928c1.65376 10.98752 37.53984 271.30368-121.30816 484.096z"  horiz-adv-x="1024" />

    


  </font>
</defs>
</svg>
